<svg width="17" height="13" viewBox="0 0 17 13" fill="none" xmlns="http://www.w3.org/2000/svg">
<path d="M1.30229 12.1725H3.88049V5.90247L0.199219 3.13574V11.0632C0.199219 11.6771 0.693849 12.1725 1.30229 12.1725Z" fill="white"/>
<path d="M12.7188 12.1723H15.297C15.9054 12.1723 16.4 11.6768 16.4 11.0674V3.13989L12.7188 5.90662V12.1723Z" fill="white"/>
<path d="M12.7188 1.10992V5.90236L16.4 3.13564V1.66239C16.4 0.294374 14.8417 -0.486097 13.7474 0.333836L12.7188 1.10992Z" fill="white"/>
<path fill-rule="evenodd" clip-rule="evenodd" d="M3.87891 5.90206V1.10962L8.29555 4.42881L12.7122 1.10962V5.90206L8.29555 9.22125L3.87891 5.90206Z" fill="white"/>
<path d="M0.199219 1.66164V3.13489L3.88049 5.90161V1.10918L2.84746 0.333089C1.75752 -0.486843 0.199219 0.298012 0.199219 1.66164Z" fill="white"/>
</svg>
