<svg width="340" height="232" viewBox="0 0 340 232" fill="none" xmlns="http://www.w3.org/2000/svg">
<path d="M131.578 203.288C177.064 181.027 182.905 181.339 219.146 202.579C258.392 225.605 284.992 211.681 291.174 183.267C301.694 134.89 218.947 141.383 234.487 79.933C245.944 34.6463 226.037 11.7052 196.658 3.36818C167.592 -4.88381 125.056 -0.289919 122.362 43.6073C120.888 67.8812 145.218 90.482 119.867 98.9608C93.6362 107.723 55.8358 99.4996 42.8765 144.73C30.0306 189.534 89.0707 224.074 131.578 203.259V203.288Z" fill="#E1F3F9"/>
<path d="M160.814 64.3929C161.579 64.5347 162.175 65.1018 162.43 65.8107C162.628 66.3212 162.855 66.8316 163.11 67.342C163.479 68.0793 163.451 68.93 162.997 69.5823L158.914 75.6224L163.763 80.7834L170.795 76.6433C171.391 76.303 172.1 76.2746 172.752 76.5582C173.404 76.8417 174 77.0686 174.624 77.2671C175.361 77.494 175.956 78.0611 176.127 78.8268L177.743 86.0295H184.832L186.619 78.0895C186.789 77.3805 187.271 76.8417 187.923 76.5582C188.349 76.388 188.746 76.1895 189.143 75.9627C189.823 75.6224 190.646 75.594 191.298 75.9627L198.16 80.0178L203.009 74.8567L198.444 68.1077C197.99 67.4271 197.933 66.6047 198.245 65.8391C198.529 65.0735 199.124 64.5063 199.89 64.3078L208.142 62.2377L207.972 55.1484L200.23 53.5887C199.294 53.3902 198.5 52.738 198.132 51.8589L198.018 51.6321C197.65 50.7246 197.735 49.7038 198.302 48.8814L202.782 42.2741L197.933 37.1131L190.674 41.3951C189.993 41.7921 189.114 41.8771 188.405 41.5368C188.093 41.3951 187.781 41.2533 187.469 41.1398C186.704 40.8279 186.165 40.1757 185.995 39.3817L184.095 30.9028H177.006L175.106 39.3533C174.936 40.119 174.368 40.7145 173.631 40.9697C173.149 41.1398 172.695 41.3383 172.213 41.5652C171.533 41.8771 170.739 41.8771 170.086 41.5085L162.657 37.1131L157.808 42.2741L162.657 49.4202C163.025 49.959 163.054 50.6679 162.799 51.2634C162.657 51.6037 162.515 51.944 162.373 52.2843C162.146 52.9081 161.664 53.3619 161.012 53.532L152.533 55.6304L152.703 62.7198L160.814 64.3645V64.3929ZM167.846 61.4721C166.145 52.4828 173.886 44.7412 182.876 46.4427C187.895 47.4068 191.95 51.4336 192.914 56.4812C194.616 65.4705 186.874 73.212 177.885 71.5106C172.865 70.5464 168.81 66.5197 167.846 61.4721Z" fill="#C7E3EA"/>
<path d="M340 178.441C340 182.638 336.625 186.041 332.429 186.041H165.943C161.746 186.041 158.371 182.638 158.371 178.441V74.0576C158.371 69.8607 161.774 66.4862 165.943 66.4862H332.429C336.625 66.4862 340 69.8891 340 74.0576V178.441Z" fill="#CEE8EF"/>
<path d="M332.429 66.4587H165.943C161.746 66.4587 158.371 69.8616 158.371 74.0301V88.1237H340V74.0301C340 69.8332 336.625 66.4587 332.429 66.4587Z" fill="#B7D9F7"/>
<path d="M176.746 77.3746C176.746 79.4447 175.073 81.1178 172.975 81.1178C170.876 81.1178 169.203 79.4164 169.203 77.3746C169.203 75.3329 170.876 73.6031 172.975 73.6031C175.073 73.6031 176.746 75.2762 176.746 77.3746Z" fill="white"/>
<path d="M186.274 77.3746C186.274 79.4447 184.572 81.1178 182.502 81.1178C180.432 81.1178 178.73 79.4164 178.73 77.3746C178.73 75.3329 180.432 73.6031 182.502 73.6031C184.572 73.6031 186.274 75.2762 186.274 77.3746Z" fill="white"/>
<path d="M195.436 77.3746C195.436 79.4447 193.763 81.1178 191.664 81.1178C189.566 81.1178 187.893 79.4164 187.893 77.3746C187.893 75.3329 189.566 73.6031 191.664 73.6031C193.763 73.6031 195.436 75.2762 195.436 77.3746Z" fill="white"/>
<path d="M332.657 178.441C332.657 182.638 329.283 186.041 325.086 186.041H158.628C154.431 186.041 151.057 182.638 151.057 178.441V74.0576C151.057 69.8607 154.46 66.4862 158.628 66.4862H325.114C329.311 66.4862 332.686 69.8891 332.686 74.0576V178.441H332.657Z" fill="white"/>
<path d="M325.086 66.4587H158.628C154.431 66.4587 151.057 69.8616 151.057 74.0301V88.1237H332.657V74.0301C332.657 69.8332 329.283 66.4587 325.086 66.4587Z" fill="#C1E3FB"/>
<path d="M169.432 77.3737C169.432 79.4438 167.759 81.1169 165.66 81.1169C163.562 81.1169 161.889 79.4154 161.889 77.3737C161.889 75.2753 163.562 73.6022 165.66 73.6022C167.759 73.6022 169.432 75.2753 169.432 77.3737Z" fill="white"/>
<path d="M178.932 77.3737C178.932 79.4438 177.23 81.1169 175.16 81.1169C173.09 81.1169 171.389 79.4154 171.389 77.3737C171.389 75.332 173.09 73.6022 175.16 73.6022C177.23 73.6022 178.932 75.2753 178.932 77.3737Z" fill="white"/>
<path d="M188.121 77.3737C188.121 79.4438 186.448 81.1169 184.35 81.1169C182.251 81.1169 180.578 79.4154 180.578 77.3737C180.578 75.2753 182.251 73.6022 184.35 73.6022C186.448 73.6022 188.121 75.2753 188.121 77.3737Z" fill="white"/>
<path d="M220.592 121.251L322.48 121.251V116.175L220.592 116.175V121.251Z" fill="#C7E3EA"/>
<path d="M220.592 130.721H322.48V125.645L220.592 125.645V130.721Z" fill="#C7E3EA"/>
<path d="M220.592 152.784H322.48V147.708H220.592V152.784Z" fill="#C7E3EA"/>
<path d="M220.592 162.227H322.48V157.151H220.592V162.227Z" fill="#C7E3EA"/>
<path d="M295.396 75.196L295.822 56.0264L316.353 66.0933L295.396 75.196Z" fill="#266275"/>
<path d="M75.7735 46.0192L75.3481 45.5088C75.3481 45.5088 75.0646 45.7356 74.781 45.9909C74.4974 46.2461 74.2422 46.5013 74.2422 46.5013L74.7243 46.955C74.7243 46.955 74.9511 46.6998 75.2347 46.4729C75.4899 46.2177 75.7735 46.0192 75.7735 46.0192Z" fill="#00B8AD"/>
<path d="M77.4747 44.7715L77.1061 44.2044C77.1061 44.2044 76.7942 44.4029 76.4822 44.6297C76.1703 44.8282 75.8867 45.0551 75.8867 45.0551L76.3121 45.5939C76.3121 45.5939 76.5957 45.367 76.8792 45.1685C77.1628 44.97 77.4747 44.7715 77.4747 44.7715Z" fill="#00B8AD"/>
<path d="M79.3204 43.7515L79.0369 43.1276C79.0369 43.1276 78.6966 43.2978 78.3846 43.4396C78.2145 43.5246 78.0444 43.6097 77.9309 43.6948C77.8175 43.7798 77.7324 43.8082 77.7324 43.8082L78.0727 44.3753C78.0727 44.3753 78.1578 44.347 78.2712 44.2619C78.3846 44.2052 78.5264 44.0918 78.6966 44.0351C79.0085 43.8933 79.3204 43.7231 79.3204 43.7231V43.7515Z" fill="#00B8AD"/>
<path d="M81.2755 43.0978L81.1337 42.4456C81.1337 42.4456 80.7651 42.5306 80.3964 42.6441C80.0278 42.7575 79.6875 42.8993 79.6875 42.8993L79.9144 43.5231C79.9144 43.5231 80.2263 43.3813 80.5666 43.2963C80.9069 43.2112 81.2472 43.1261 81.2472 43.1261L81.2755 43.0978Z" fill="#00B8AD"/>
<path d="M83.3134 42.9277L83.3701 42.2472C83.3701 42.2472 83.0015 42.2188 82.6045 42.2188C82.2358 42.2472 81.8672 42.3039 81.8672 42.3039L81.9523 42.9845C81.9523 42.9845 82.2925 42.9561 82.6328 42.8994C82.9731 42.8994 83.3134 42.9277 83.3134 42.9277Z" fill="#00B8AD"/>
<path d="M85.3005 43.4093L85.5558 42.7854C85.5558 42.7854 85.2155 42.5869 84.8468 42.5302C84.4782 42.4451 84.1095 42.3317 84.1095 42.3317L83.9961 42.9839C83.9961 42.9839 85.3289 43.2958 85.3005 43.3809V43.4093Z" fill="#00B8AD"/>
<path d="M87.0562 44.4583L87.4815 43.9479C87.4815 43.9479 87.1696 43.721 86.886 43.4942C86.7442 43.3807 86.5741 43.2673 86.4607 43.1822L86.2338 43.0688L85.9219 43.6643C85.9219 43.6643 86.0069 43.6927 86.1204 43.7494C86.2338 43.8061 86.3756 43.9195 86.5174 44.033L87.0845 44.43L87.0562 44.4583Z" fill="#00B8AD"/>
<path d="M88.557 45.9619L89.0107 45.5082L88.0182 44.4306L87.5645 44.941L88.557 45.9619Z" fill="#00B8AD"/>
<path d="M90.142 47.5206L90.5107 46.9535C90.5107 46.9535 90.2271 46.755 89.9719 46.5281L89.4898 46.0177L89.0645 46.5281C89.0645 46.5281 89.3197 46.8117 89.5749 47.0669C89.8585 47.3221 90.1704 47.5206 90.1704 47.5206H90.142Z" fill="#00B8AD"/>
<path d="M92.0711 48.6266L92.2979 47.9743C92.2979 47.9743 91.0502 47.3788 91.0502 47.3221L90.7383 47.9176L92.0711 48.5982V48.6266Z" fill="#00B8AD"/>
<path d="M94.2558 49.0544L94.3125 48.3738C94.3125 48.3738 93.9723 48.3738 93.632 48.3171C93.2917 48.3171 92.9514 48.1469 92.9514 48.1753L92.7812 48.8275C92.7812 48.8275 93.1499 48.9693 93.5185 48.9977C93.8872 49.026 94.2558 49.0544 94.2558 49.0544Z" fill="#00B8AD"/>
<path d="M96.4736 48.7967L96.3885 48.1161C96.3885 48.1161 96.0482 48.2012 95.7079 48.2863C95.3676 48.3146 95.0273 48.343 95.0273 48.343V49.0236L95.7646 48.9669C96.1333 48.9102 96.5019 48.7967 96.5019 48.7967H96.4736Z" fill="#00B8AD"/>
<path d="M98.5929 48.0579L98.3376 47.4341L97.0332 47.9445L97.175 48.5967C97.175 48.5967 98.5929 48.0863 98.5645 48.0579H98.5929Z" fill="#00B8AD"/>
<path d="M100.549 47.0108L100.209 46.4436C100.209 46.4436 99.8967 46.6138 99.5848 46.7839C99.2729 46.9541 98.9609 47.1242 98.9609 47.1242L99.2445 47.7197C99.2445 47.7197 99.3296 47.6914 99.443 47.6063C99.5564 47.5496 99.7266 47.4361 99.8967 47.3511L100.549 46.9824V47.0108Z" fill="#00B8AD"/>
<path d="M102.365 45.8206L101.968 45.2818L101.373 45.6788C101.061 45.8773 100.777 46.0758 100.777 46.0758L101.146 46.6429C101.146 46.6429 101.458 46.4444 101.77 46.2459L102.365 45.8206Z" fill="#00B8AD"/>
<path d="M103.719 44.0003L102.549 44.8501L102.949 45.4008L104.119 44.5509L103.719 44.0003Z" fill="#00B8AD"/>
<path d="M105.882 43.3539L105.542 42.7868C105.542 42.7868 105.23 42.9853 104.918 43.1838C104.606 43.3823 104.322 43.6091 104.322 43.6091L104.719 44.1479L105.315 43.7226C105.598 43.5241 105.91 43.3539 105.91 43.3539H105.882Z" fill="#00B8AD"/>
<path d="M107.753 42.8441V42.1635C107.753 42.1635 107.668 42.1635 107.498 42.1635C107.356 42.1635 107.158 42.1635 106.959 42.2202C106.562 42.2769 106.193 42.4187 106.193 42.4187L106.42 43.0426C106.42 43.0426 106.732 42.9292 107.072 42.8724C107.243 42.8724 107.413 42.8157 107.526 42.8157C107.64 42.8157 107.725 42.8157 107.725 42.8157L107.753 42.8441Z" fill="#00B8AD"/>
<path d="M109.65 43.3558L109.962 42.7603C109.962 42.7603 109.877 42.7036 109.735 42.6468C109.622 42.5618 109.423 42.5051 109.253 42.4483C109.083 42.3916 108.884 42.3066 108.743 42.3066C108.601 42.3066 108.516 42.2498 108.516 42.2498L108.402 42.9304C108.402 42.9304 108.487 42.9304 108.601 42.9588C108.714 42.9588 108.884 43.0439 109.026 43.1006C109.338 43.1856 109.622 43.3841 109.622 43.3841L109.65 43.3558Z" fill="#00B8AD"/>
<path d="M111.186 44.66L111.696 44.2346C111.696 44.2346 110.647 43.1287 110.59 43.1854L110.193 43.7242C110.193 43.7242 111.214 44.6316 111.186 44.66Z" fill="#00B8AD"/>
<path d="M112.318 46.3879L112.914 46.0759L112.8 45.8774C112.8 45.8774 112.659 45.5939 112.545 45.4237L112.148 44.7999L111.609 45.1969C111.609 45.1969 111.808 45.4804 111.978 45.7924C112.091 45.9342 112.148 46.1043 112.205 46.2177C112.262 46.3312 112.318 46.4162 112.318 46.4162V46.3879Z" fill="#00B8AD"/>
<path d="M115.273 87.9019C115.273 85.6333 117.117 83.7901 119.385 83.7901C121.654 83.7901 123.497 85.6333 123.497 87.9019C123.497 90.1705 121.654 92.0137 119.385 92.0137C117.117 92.0137 115.273 90.1705 115.273 87.9019ZM116.067 87.9019C116.067 89.7451 117.57 91.2197 119.385 91.2197C121.2 91.2197 122.703 89.7168 122.703 87.9019C122.703 86.087 121.2 84.5841 119.385 84.5841C117.57 84.5841 116.067 86.087 116.067 87.9019Z" fill="#242236"/>
<path d="M52.4353 231.872H56.377L56.377 159.362H52.4353L52.4353 231.872Z" fill="#008CB8"/>
<path d="M87.1558 228.846L90.6719 227.064L57.8998 162.383L54.3837 164.165L87.1558 228.846Z" fill="#008CB8"/>
<path d="M52.8423 164.154L49.3262 162.373L16.5541 227.054L20.0702 228.835L52.8423 164.154Z" fill="#008CB8"/>
<path d="M34.6805 171.583H74.1256C77.1639 171.583 79.627 169.12 79.627 166.082V164.863C79.627 161.824 77.1639 159.361 74.1256 159.361H34.6805C31.6422 159.361 29.1792 161.824 29.1792 164.863V166.082C29.1792 169.12 31.6422 171.583 34.6805 171.583Z" fill="#266275"/>
<path d="M4.02826 160.355H102.74L102.74 61.6429L4.02826 61.6429L4.02826 160.355Z" fill="white"/>
<path d="M2.12595 63.9949L104.666 63.9949C105.841 63.9949 106.793 63.0427 106.793 61.8681V61.386C106.793 60.2114 105.841 59.2592 104.666 59.2592L2.12595 59.2592C0.951355 59.2592 -0.000846863 60.2114 -0.000846863 61.386V61.8681C-0.000846863 63.0427 0.951355 63.9949 2.12595 63.9949Z" fill="#008CB8"/>
<path d="M2.12595 161.715H104.666C105.841 161.715 106.793 160.763 106.793 159.588V159.106C106.793 157.932 105.841 156.98 104.666 156.98H2.12595C0.951355 156.98 -0.000846863 157.932 -0.000846863 159.106V159.588C-0.000846863 160.763 0.951355 161.715 2.12595 161.715Z" fill="#008CB8"/>
<path d="M28.248 71.57C29.0704 71.4565 30.0629 71.3431 31.1689 71.3431C33.1255 71.3431 34.5434 71.7968 35.4508 72.6759C36.3866 73.555 36.9538 74.7744 36.9538 76.4758C36.9538 78.1772 36.415 79.6235 35.4225 80.5876C34.43 81.5801 32.7852 82.1189 30.7435 82.1189C29.7793 82.1189 28.957 82.0622 28.248 82.0055V71.57ZM29.6092 80.9563C29.9495 81.013 30.4599 81.0413 30.9987 81.0413C33.9195 81.0413 35.5075 79.3966 35.5075 76.5325C35.5075 74.0371 34.118 72.449 31.2256 72.449C30.5166 72.449 29.9778 72.5058 29.6092 72.5908V80.9563Z" fill="#008CB8"/>
<path d="M39.5047 78.458C39.533 80.3296 40.724 81.0952 42.1135 81.0952C43.1061 81.0952 43.7016 80.9251 44.212 80.6982L44.4389 81.6907C43.9568 81.9176 43.1061 82.1728 41.915 82.1728C39.5614 82.1728 38.1719 80.6415 38.1719 78.3446C38.1719 76.0476 39.533 74.2328 41.7449 74.2328C44.2404 74.2328 44.8926 76.4163 44.8926 77.8058C44.8926 78.0894 44.8642 78.3162 44.8359 78.458H39.4763H39.5047ZM43.5598 77.4655C43.5598 76.5864 43.1911 75.2253 41.6315 75.2253C40.242 75.2253 39.6181 76.5014 39.5047 77.4655H43.5598Z" fill="#008CB8"/>
<path d="M47.1611 74.4054L48.664 78.6874C48.9192 79.3679 49.1177 80.0202 49.2879 80.644H49.3446C49.5147 80.0202 49.7416 79.3963 49.9968 78.6874L51.4714 74.4054H52.9176L49.9401 82.0052H48.6073L45.7148 74.4054H47.1894H47.1611Z" fill="#008CB8"/>
<path d="M63.2939 76.6163C63.2939 80.2744 61.082 82.2027 58.3597 82.2027C55.6374 82.2027 53.5957 80.0192 53.5957 76.8148C53.5957 73.4403 55.6941 71.2568 58.5299 71.2568C61.3656 71.2568 63.2939 73.4686 63.2939 76.6163ZM55.0703 76.7865C55.0703 79.055 56.2896 81.0684 58.4448 81.0684C60.6 81.0684 61.8477 79.0834 61.8477 76.673C61.8477 74.5746 60.7418 72.3627 58.4732 72.3627C56.2046 72.3627 55.0703 74.4612 55.0703 76.7865Z" fill="#008CB8"/>
<path d="M65.002 76.8984C65.002 75.9342 64.9737 75.1402 64.9453 74.4029H66.193L66.2497 75.7073H66.2781C66.8453 74.7715 67.7527 74.2328 68.9721 74.2328C70.8153 74.2328 72.2048 75.7924 72.2048 78.0894C72.2048 80.84 70.5317 82.1728 68.7452 82.1728C67.7527 82.1728 66.8453 81.7191 66.3915 80.9818H66.3632V85.122H65.002V76.87V76.8984ZM66.3632 78.9401C66.3632 79.1386 66.3915 79.3371 66.4199 79.5072C66.6751 80.4714 67.4975 81.1236 68.49 81.1236C69.9646 81.1236 70.8153 79.9326 70.8153 78.1744C70.8153 76.4163 70.0213 75.3387 68.5467 75.3387C67.6109 75.3387 66.7318 76.0193 66.4482 77.0401C66.3915 77.2103 66.3632 77.4088 66.3632 77.6073V78.9117V78.9401Z" fill="#008CB8"/>
<path d="M73.7622 80.6132C74.1592 80.8684 74.8965 81.152 75.577 81.152C76.5695 81.152 77.0516 80.6415 77.0516 80.0177C77.0516 79.3654 76.6546 78.9968 75.6338 78.6282C74.2726 78.1461 73.6204 77.3804 73.6204 76.473C73.6204 75.2536 74.6129 74.2328 76.2576 74.2328C77.0233 74.2328 77.7038 74.4596 78.1292 74.7148L77.7889 75.7073C77.477 75.5088 76.9382 75.2536 76.2293 75.2536C75.4069 75.2536 74.9532 75.7357 74.9532 76.3028C74.9532 76.9267 75.4069 77.2103 76.3994 77.5789C77.7322 78.0894 78.3844 78.7416 78.3844 79.8759C78.3844 81.2087 77.3352 82.1445 75.5487 82.1445C74.7263 82.1445 73.9323 81.946 73.4219 81.634L73.7622 80.5848V80.6132Z" fill="#008CB8"/>
<path d="M8.95934 90.6234L98.3984 90.6234V87.7593L8.95934 87.7593V90.6234Z" fill="#C7E3EA"/>
<path d="M8.95934 95.9274L98.3984 95.9274V93.0633L8.95934 93.0633V95.9274Z" fill="#C7E3EA"/>
<path d="M34.0879 147.649C22.6032 147.734 14.2094 138.291 14.1527 127.43C14.0959 115.605 21.7241 107.041 32.8118 106.956C43.3607 106.899 50.3366 114.556 57.029 121.503C63.2392 114.867 70.3853 106.701 80.0268 106.644C91.5115 106.559 99.9053 116.002 99.962 126.863C100.019 138.688 92.2488 147.252 81.3029 147.337C70.7539 147.393 63.778 139.737 57.0857 132.789C50.8754 139.425 43.7294 147.592 34.0879 147.649ZM80.7357 139.113C87.1161 139.085 91.7951 133.952 91.7667 126.948C91.7384 120.482 86.7475 114.867 80.2253 114.924C72.6539 114.981 67.3511 122.155 62.3035 127.146C67.2943 132.477 73.3345 139.17 80.7641 139.141L80.7357 139.113ZM33.9177 139.397C41.4892 139.34 46.792 132.165 51.8396 127.175C46.8487 121.843 40.8086 115.151 33.3789 115.179C26.9985 115.208 22.3196 120.34 22.3479 127.345C22.3763 133.81 27.3672 139.425 33.8894 139.368L33.9177 139.397Z" fill="#008CB8"/>
<path d="M99.9333 126.892C99.9333 128.168 99.8482 129.387 99.6781 130.578L95.7364 133.244L91.2843 130.55C91.5679 129.416 91.738 128.196 91.7097 126.92C91.6813 120.455 86.6904 114.84 80.1682 114.897C79.0623 114.897 78.0131 115.067 76.9922 115.35L79.6578 110.983L77.0205 106.928C77.9847 106.758 78.9772 106.645 79.9981 106.616C91.4828 106.531 99.8766 115.974 99.9333 126.835V126.892Z" fill="#266275"/>
<path d="M14.1523 127.431C14.1523 127.26 14.1523 127.09 14.1523 126.92L18.491 129.671L22.376 126.92C22.376 127.062 22.376 127.204 22.376 127.374C22.4043 133.839 27.3952 139.454 33.9174 139.397C35.5338 139.397 37.0651 139.029 38.5113 138.462L41.6306 141.836L38.5113 147.025C37.0934 147.394 35.6472 147.649 34.1159 147.649C22.6312 147.734 14.2374 138.291 14.1807 127.431H14.1523Z" fill="#266275"/>
<path d="M51.8394 127.204C49.1171 124.283 46.0545 120.965 42.6516 118.555L39.4473 112.6L42.7084 109.395C48.2097 112.203 52.6902 116.995 57.0288 121.532L62.2749 127.147C65.933 131.032 70.1299 135.654 75.0357 137.866L72.2284 140.844L75.0357 146.458C67.8046 144.218 62.36 138.32 57.1139 132.847L51.8678 127.232L51.8394 127.204Z" fill="#266275"/>
<path d="M8.87891 51.1778L28.0485 51.6882L17.8965 72.1906L8.87891 51.1778Z" fill="#00B860"/>
<path d="M263.947 27.4732H231.677C223.846 27.4732 217.498 33.8212 217.498 41.6519V82.7417C217.498 90.5723 223.846 96.9204 231.677 96.9204H263.947C271.778 96.9204 278.126 90.5723 278.126 82.7417V41.6519C278.126 33.8212 271.778 27.4732 263.947 27.4732Z" fill="#00B8AD"/>
<path d="M264.912 62.0119L263.664 62.1821C263.267 62.2388 262.898 62.3806 262.586 62.6074C262.161 62.9194 261.877 63.4015 261.736 64.082C261.679 64.4223 261.622 64.9327 261.622 65.585V71.8519C261.622 73.6668 261.112 74.9145 260.091 75.6518C259.24 76.2473 257.851 76.5593 255.951 76.5593C255.752 76.5593 255.355 76.5593 254.76 76.5593V75.8787C256.801 75.6518 257.936 74.8295 258.106 73.3832C258.106 73.1847 258.134 72.731 258.134 72.0221V66.1238C258.134 64.6492 258.418 63.6 258.985 62.9477C259.524 62.3239 260.403 61.8985 261.622 61.6433C260.403 61.3881 259.524 60.9344 258.985 60.3389C258.418 59.6866 258.134 58.6374 258.134 57.1628V51.2645C258.134 50.5556 258.134 50.1018 258.106 49.9033C257.936 48.4571 256.83 47.6348 254.76 47.4079V46.7273H255.951C257.851 46.7273 259.212 47.0109 260.091 47.6348C261.112 48.3437 261.622 49.6198 261.622 51.4346V57.7016C261.622 58.8359 261.764 59.6299 262.048 60.112C262.189 60.3389 262.36 60.5374 262.586 60.6791C262.927 60.906 263.267 61.0761 263.664 61.1329L264.912 61.303V61.9836V62.0119Z" fill="white"/>
<path d="M231.648 61.3305L232.896 61.1604C233.293 61.1037 233.662 60.9619 233.974 60.7067C234.172 60.5649 234.342 60.3664 234.513 60.1395C234.796 59.6858 234.938 58.8634 234.938 57.7292V51.4622C234.938 49.6473 235.448 48.3996 236.469 47.6623C237.32 47.0384 238.709 46.7549 240.609 46.7549H241.8V47.4638C239.759 47.6906 238.624 48.513 238.454 49.9592C238.454 50.1577 238.426 50.6115 238.426 51.3204V57.2187C238.426 58.6933 238.142 59.7425 237.575 60.3947C237.036 60.9903 236.157 61.444 234.938 61.6992C236.157 61.9544 237.036 62.3798 237.575 63.0036C238.142 63.6558 238.426 64.7051 238.426 66.1796V72.078C238.426 72.7869 238.426 73.2406 238.454 73.4391C238.624 74.8854 239.73 75.7077 241.8 75.9346V76.6152C241.205 76.6152 240.78 76.6152 240.609 76.6152C238.709 76.6152 237.348 76.3032 236.469 75.7077C235.448 74.9988 234.938 73.7227 234.938 71.9078V65.6409C234.938 64.9886 234.91 64.4782 234.824 64.1379C234.683 63.4857 234.399 62.9753 233.974 62.6633C233.633 62.4365 233.293 62.2663 232.896 62.238L231.648 62.0678V61.3873V61.3305Z" fill="white"/>
</svg>
