<svg width="67" height="46" viewBox="0 0 67 46" fill="none" xmlns="http://www.w3.org/2000/svg">
<path d="M38.175 18H45H38.175ZM30.05 18H36.875H30.05ZM22.0875 18H28.9125H22.0875ZM14.125 18H20.7875H14.125ZM6 18H12.825H6ZM14.125 10.5H20.7875H14.125ZM22.0875 10.5H28.9125H22.0875ZM30.05 10.5H36.875H30.05ZM30.05 3H36.875H30.05Z" fill="white"/>
<path fill-rule="evenodd" clip-rule="evenodd" d="M36.875 6.13846H30.05V0H36.875V6.13846ZM20.7875 13.5692H14.125V7.43077H20.7875V13.5692ZM28.9125 13.5692H22.0875V7.43077H28.9125V13.5692ZM36.875 13.5692H30.05V7.43077H36.875V13.5692ZM12.825 21H6V14.8615H12.825V21ZM20.7875 21H14.125V14.8615H20.7875V21ZM28.9125 21H22.0875V14.8615H28.9125V21ZM36.875 21H30.05V14.8615H36.875V21ZM45 21H38.175V14.8615H45V21Z" fill="#008CB8"/>
<path d="M67 18.3319C67 18.3319 64.0257 15.5487 57.9118 16.531C57.2509 11.7832 52.1284 9 52.1284 9C52.1284 9 47.3365 14.7301 50.8065 21.115C49.8151 21.6062 48.1627 22.2611 45.6841 22.2611H0.243106C-0.583093 25.3717 -0.583092 46 22.22 46C38.5788 46 50.8065 38.469 56.5899 24.7168C65.1824 25.3717 67 18.3319 67 18.3319Z" fill="#008CB8"/>
</svg>
