<svg width="50" height="51" viewBox="0 0 50 51" fill="none" xmlns="http://www.w3.org/2000/svg">
<path d="M13.3414 50.1495C12.3077 49.914 11.5539 49.2623 10.8578 48.5086C10.4037 48.0179 9.90908 47.5638 9.44324 47.0836C8.99833 46.6256 8.97085 46.0485 9.35556 45.6429C9.75598 45.2215 10.3566 45.232 10.829 45.6926C11.4951 46.3416 12.1428 47.0103 12.8062 47.662C13.5168 48.3594 14.2247 48.3555 14.9418 47.6528C15.4207 47.1843 15.8905 46.7093 16.3629 46.2343C17.1297 45.461 17.1127 44.842 16.3446 44.0687C14.5859 42.2982 12.8429 40.512 11.0842 38.7402C9.54269 37.1883 7.99204 35.6455 6.44009 34.104C6.20979 33.875 5.96509 33.6578 5.70992 33.4576C5.31997 33.1514 4.62381 33.1788 4.21162 33.5623C3.55472 34.1733 2.91222 34.8028 2.30504 35.4636C1.80518 36.0079 1.87322 36.7277 2.43721 37.3073C3.12028 38.0087 3.82297 38.6918 4.51128 39.388C4.82795 39.7086 4.92216 40.088 4.73111 40.5094C4.55053 40.9098 4.21816 41.1231 3.79288 41.0695C3.55341 41.0394 3.28516 40.9137 3.10981 40.7476C2.35215 40.0278 1.60627 39.295 0.890492 38.5348C-0.291137 37.2786 -0.29768 35.3563 0.876098 34.0909C1.49766 33.4209 2.14147 32.7693 2.81669 32.1542C3.76147 31.2945 4.87244 31.0891 6.09987 31.445C6.2582 31.4908 6.5173 31.5013 6.61282 31.4071C7.65051 30.3955 8.66595 29.3605 9.68663 28.3332C7.73033 26.2971 8.49453 23.4366 10.8277 22.4761C9.57148 20.317 10.6105 17.8648 12.9737 17.1948C12.767 16.2657 12.8468 15.3589 13.3493 14.5214C13.8518 13.6826 14.5963 13.1631 15.4705 12.9367C15.4979 12.3099 15.4391 11.7119 15.5647 11.1558C15.986 9.29633 17.7932 8.22592 19.6906 8.62765C19.8764 8.66691 20.1329 8.61457 20.2873 8.50596C21.1457 7.90533 22.0878 7.99169 23.0248 8.16181C25.142 8.5439 27.2527 8.96657 29.37 9.3539C29.7678 9.42718 30.1865 9.38269 30.5856 9.44943C32.5511 9.77788 33.7537 11.4685 33.4409 13.4314C33.4252 13.5282 33.42 13.625 33.4043 13.7677C34.3229 14.0255 35.0832 14.5227 35.5883 15.3576C36.0973 16.1964 36.1758 17.1019 35.9756 18.0388C38.0588 18.7363 38.9225 20.2804 38.5835 22.3832C39.8829 22.7522 40.7885 23.5609 41.1313 24.8891C41.4715 26.2016 41.0646 27.3322 40.0949 28.3202C40.9102 29.1354 41.7045 29.9271 42.4974 30.7201C42.5786 30.8012 42.6715 30.8732 42.7382 30.9635C43.0928 31.445 43.4606 31.5602 44.09 31.3429C45.1957 30.9621 46.2635 31.2382 47.1363 32.0325C47.8233 32.658 48.4854 33.3162 49.1135 34.0006C50.303 35.2974 50.3043 37.2262 49.0638 38.4772C45.5255 42.0496 41.9688 45.6023 38.3938 49.138C37.101 50.4165 35.1185 50.3733 33.8047 49.1053C33.2171 48.5387 32.6348 47.9656 32.0722 47.3741C31.0763 46.3272 30.8251 45.1116 31.3603 43.7651C31.4663 43.4981 31.4061 43.3594 31.2242 43.1802C30.04 42.0103 28.8675 40.8274 27.6806 39.6601C27.5668 39.5476 27.3836 39.4468 27.2292 39.4403C26.1706 39.3971 25.1106 39.3762 24.0507 39.3552C23.6921 39.3487 23.3192 39.3016 22.9777 39.3814C22.6152 39.4665 22.2122 39.6052 21.9504 39.8512C20.8356 40.9046 19.7717 42.0116 18.6764 43.0873C18.4736 43.2862 18.433 43.4314 18.5652 43.7075C19.1789 44.9925 18.9447 46.3835 17.958 47.4186C17.3836 48.0205 16.8287 48.6565 16.1797 49.1681C15.6576 49.579 15.0072 49.8276 14.4131 50.1482H13.3362L13.3414 50.1495ZM8.09149 32.7483C11.1313 35.8025 14.1292 38.8174 17.152 41.8546C18.2747 40.7279 19.4341 39.5816 20.5738 38.4144C21.1876 37.7863 21.9217 37.433 22.7879 37.4133C23.7 37.3924 24.6173 37.3832 25.5241 37.4644C27.1166 37.6057 28.5377 37.4042 29.599 36.0223C30.0007 35.4989 30.6537 35.5185 31.0619 35.9281C31.4807 36.3469 31.4388 36.8952 30.9861 37.4068C30.5647 37.8831 30.1721 38.3856 29.811 38.8227C30.7204 39.7439 31.779 40.8156 32.8076 41.8559C35.7898 38.8632 38.7916 35.8496 41.7149 32.9158C40.7113 31.903 39.671 30.8535 38.6215 29.7936C38.42 29.9846 38.1988 30.2267 37.945 30.4296C37.4752 30.8038 36.8563 30.707 36.5265 30.2333C36.2373 29.8172 36.2923 29.3264 36.7045 28.9064C37.4242 28.1723 38.1713 27.4644 38.8767 26.7172C39.4289 26.1309 39.4001 25.2686 38.861 24.7269C38.3114 24.1746 37.483 24.1406 36.8693 24.6654C36.5854 24.9087 36.3328 25.1901 36.0633 25.4505C35.549 25.9477 34.9758 25.9896 34.5519 25.563C34.1397 25.1495 34.1868 24.5502 34.6788 24.0503C35.2166 23.5034 35.7767 22.9773 36.2962 22.4133C36.8366 21.8245 36.8091 20.9621 36.2766 20.4204C35.7191 19.8538 34.8685 19.8342 34.2496 20.3903C33.946 20.6625 33.6686 20.9634 33.3768 21.2487C32.8534 21.7617 32.2475 21.8101 31.8288 21.3756C31.4192 20.9504 31.4702 20.3759 31.9727 19.8656C32.5563 19.2728 33.1648 18.7023 33.7262 18.0885C34.2836 17.4787 34.23 16.6072 33.6516 16.0668C33.0902 15.5421 32.2501 15.5473 31.6573 16.0956C31.3459 16.3835 31.0593 16.6975 30.7531 16.9907C30.2703 17.4539 29.6827 17.4905 29.2731 17.0901C28.8492 16.6753 28.8845 16.0747 29.3752 15.5774C29.9366 15.0082 30.5071 14.4481 31.0724 13.8815C31.4153 13.5387 31.5854 13.1252 31.5173 12.6397C31.4375 12.0783 31.1326 11.6727 30.5974 11.4712C30.0216 11.2539 29.4943 11.3822 29.0612 11.8035C28.2198 12.6227 27.4019 13.468 26.5579 14.2859C26.3289 14.5083 26.2752 14.6653 26.4231 14.9859C27.275 16.8376 26.325 19.0045 24.4053 19.6326C24.069 19.7426 23.7092 19.7818 23.3375 19.859C23.3192 19.9375 23.2904 20.0291 23.2773 20.1233C23.0051 21.9475 21.9923 22.9695 20.1643 23.2259C19.8725 23.2665 19.8437 23.4118 19.8175 23.6434C19.6382 25.2634 18.4527 26.4568 16.834 26.6635C16.694 26.6818 16.5553 26.7146 16.4506 26.7342C16.3721 27.115 16.3341 27.4578 16.2307 27.781C15.6079 29.7242 13.4343 30.6638 11.5461 29.8315C11.3995 29.7674 11.1313 29.7308 11.0462 29.8119C10.0269 30.7973 9.03104 31.8075 8.09411 32.747L8.09149 32.7483ZM48.1295 36.2082C47.9201 35.8444 47.7866 35.4871 47.5498 35.2228C47.0499 34.6654 46.5029 34.1485 45.9638 33.6277C45.3161 32.9996 44.5768 32.9956 43.9329 33.6368C40.4679 37.0901 37.0067 40.5473 33.5495 44.0085C32.9083 44.651 32.9031 45.3929 33.526 46.0354C34.0481 46.5733 34.5794 47.1032 35.1198 47.624C35.7584 48.2404 36.4899 48.2639 37.1114 47.6463C40.6027 44.1734 44.0873 40.6939 47.559 37.2C47.8063 36.9514 47.924 36.5759 48.1308 36.2068L48.1295 36.2082ZM19.6683 21.2867C20.5058 21.2409 20.9625 20.97 21.1941 20.3968C21.4283 19.8145 21.3341 19.2636 20.8905 18.8148C19.7089 17.6201 18.5246 16.428 17.3208 15.2568C16.7018 14.6549 15.829 14.6771 15.2598 15.2568C14.6932 15.8339 14.6971 16.6936 15.3095 17.3178C16.4637 18.4942 17.623 19.6653 18.8125 20.8051C19.086 21.0681 19.493 21.1924 19.6696 21.288L19.6683 21.2867ZM23.2472 17.9197C24.1109 17.8399 24.7769 17.1974 24.756 16.3861C24.7442 15.949 24.6055 15.6428 24.1135 15.4269C22.0957 14.545 20.6105 13.1003 19.7534 11.0393C19.6749 10.8496 19.4576 10.6533 19.2614 10.5866C18.6437 10.3759 17.9894 10.6455 17.6505 11.1885C17.292 11.763 17.3522 12.4709 17.8599 12.9838C19.3255 14.4678 20.7976 15.9451 22.2946 17.3989C22.5445 17.6423 22.9266 17.7496 23.2472 17.921V17.9197ZM17.9253 23.2312C17.8049 22.9538 17.75 22.6135 17.5537 22.4081C16.5854 21.394 15.6026 20.3903 14.5793 19.4324C14.0572 18.9443 13.2158 19.0346 12.7042 19.5266C12.1886 20.0226 12.059 20.8614 12.5484 21.39C13.5207 22.4434 14.5427 23.4549 15.5908 24.4337C16.0161 24.8315 16.5919 24.8106 17.1088 24.5397C17.6113 24.2754 17.8599 23.8331 17.924 23.2312H17.9253ZM14.4288 26.6203C14.3922 26.4973 14.3909 26.2265 14.2548 26.076C13.7445 25.5146 13.2407 24.9271 12.64 24.4756C12.1009 24.0713 11.3263 24.2859 10.884 24.8054C10.4587 25.3052 10.4142 26.0969 10.8526 26.6073C11.2425 27.0626 11.6743 27.4905 12.1363 27.8713C12.589 28.2443 13.1334 28.256 13.6516 27.9878C14.1527 27.7274 14.404 27.289 14.4288 26.6177V26.6203ZM21.639 9.93359L21.55 10.156C22.0695 11.6884 23.1923 12.6842 24.4459 13.4405C25.3226 12.5651 26.1431 11.7446 26.991 10.898C25.2245 10.58 23.4317 10.2568 21.6403 9.93359H21.639Z" fill="#008CB8"/>
<path d="M7.79037 1.19482C8.05208 0.885999 8.2235 0.515676 8.49961 0.405757C8.78095 0.29453 9.18791 0.375661 9.49412 0.490814C9.73227 0.579796 9.905 0.848051 10.1013 1.04303C11.0945 2.03099 12.0877 3.01764 13.0743 4.01084C13.5768 4.51725 13.6226 5.09956 13.2104 5.52353C12.7917 5.95536 12.1845 5.90825 11.665 5.39137C10.5554 4.28956 9.44308 3.19168 8.35174 2.07286C8.13845 1.85433 8.01413 1.55075 7.78906 1.19351L7.79037 1.19482Z" fill="#008CB8"/>
<path d="M40.7376 0.276611C41.3212 0.281846 41.63 0.476821 41.7923 0.852377C41.9702 1.26457 41.893 1.65452 41.5724 1.97774C40.8357 2.71969 40.0964 3.45641 39.357 4.19575C38.9305 4.62234 38.5091 5.05678 38.0734 5.47421C37.6154 5.91258 37.0291 5.93221 36.63 5.54225C36.2283 5.14969 36.2257 4.54775 36.6653 4.10153C37.8234 2.92775 38.9893 1.76183 40.1697 0.610294C40.3555 0.429713 40.629 0.339422 40.7376 0.276611Z" fill="#008CB8"/>
<path d="M25.889 3.18675C25.889 3.88813 25.8955 4.58952 25.8864 5.2896C25.8785 5.93865 25.503 6.35084 24.9311 6.36393C24.3488 6.37701 23.9288 5.94126 23.9248 5.28437C23.9157 3.88159 23.9157 2.48013 23.9248 1.07735C23.9288 0.426996 24.3593 -0.0152977 24.9364 0.000405052C25.5003 0.0161078 25.8798 0.438772 25.8877 1.08128C25.8955 1.78266 25.889 2.48405 25.889 3.18413V3.18675Z" fill="#008CB8"/>
<path d="M6.79924 44.0962C6.23787 44.1053 5.79688 43.6735 5.80081 43.1174C5.80342 42.5953 6.2431 42.1464 6.7626 42.136C7.30042 42.1242 7.76365 42.5861 7.76103 43.1305C7.75841 43.6683 7.34098 44.0883 6.79924 44.0975V44.0962Z" fill="#008CB8"/>
<path d="M33.4966 34.4903C32.9549 34.5007 32.5257 34.0964 32.5047 33.556C32.4825 33.0024 32.9156 32.5392 33.4652 32.5287C34.0017 32.5183 34.4728 32.9867 34.4689 33.5232C34.4636 34.0493 34.0318 34.4798 33.4966 34.4903Z" fill="#008CB8"/>
</svg>
