<svg width="50" height="42" viewBox="0 0 50 42" fill="none" xmlns="http://www.w3.org/2000/svg">
<path d="M27.3098 24.6588C27.443 24.8728 27.5251 25.0128 27.6153 25.1487C29.6609 28.2601 31.7078 31.3702 33.7547 34.4816C33.8382 34.6081 33.927 34.732 33.9916 34.8665C34.2661 35.4439 33.9324 36.0199 33.2985 36.0535C32.9634 36.071 32.627 36.0589 32.2905 36.0589C27.2021 36.0589 22.1124 36.0562 17.024 36.0629C16.6015 36.0629 16.1964 36.0481 15.9891 35.6148C15.8007 35.2205 15.9757 34.88 16.2004 34.5409C18.2621 31.4214 20.3171 28.2951 22.3721 25.1716C22.4637 25.033 22.5498 24.8916 22.6951 24.6602H22.0599C15.1077 24.6602 8.15403 24.6602 1.20175 24.6602C0.234141 24.6602 0.00670546 24.4368 0.00535969 23.4907C0.00535969 22.5675 0.00132236 21.6443 0.00670546 20.7197C0.0107428 20.1128 0.287972 19.8396 0.9003 19.8194C1.01738 19.8154 1.13581 19.8194 1.25289 19.8194C17.0738 19.8194 32.8934 19.8194 48.7144 19.8194C48.8651 19.8194 49.0172 19.8154 49.1679 19.8235C49.6887 19.8517 49.9821 20.1303 49.9875 20.643C49.9982 21.7008 49.9982 22.7586 49.9875 23.8164C49.9821 24.3157 49.6752 24.6198 49.1746 24.6588C49.0239 24.6709 48.8718 24.6615 48.7211 24.6615C41.8186 24.6615 34.9161 24.6615 28.0136 24.6615H27.3084L27.3098 24.6588ZM1.63913 22.9793H48.3402V21.4667H1.63913V22.9793ZM31.7239 34.4184C31.6674 34.3121 31.6338 34.2394 31.5907 34.1735C29.5653 31.093 27.5399 28.0125 25.5105 24.9347C25.2212 24.496 24.7542 24.5296 24.4419 25.0033C22.4596 28.0125 20.4786 31.023 18.499 34.0348C18.4236 34.1492 18.3644 34.2757 18.285 34.4197H31.7239V34.4184Z" fill="#008CB8"/>
<path d="M32.8618 14.6705C33.0018 14.3314 33.1013 14.0286 33.248 13.7514C33.4136 13.4391 33.4284 13.1552 33.2238 12.8631C33.1861 12.8093 33.1579 12.7434 33.1431 12.6801C32.9762 11.9521 32.5603 11.4999 31.8027 11.3317C31.407 11.2428 31.2307 10.9077 31.2388 10.4825C31.2509 9.77729 31.2549 9.0721 31.2388 8.36691C31.2267 7.87705 31.4285 7.51369 31.9023 7.43967C32.9991 7.26876 33.0098 6.27558 33.3705 5.55963C33.4391 5.4237 33.2776 5.15724 33.1929 4.96345C32.7891 4.04025 32.8053 3.93393 33.5306 3.2099C33.9115 2.83039 34.2977 2.45761 34.6692 2.06869C35.0298 1.69052 35.4538 1.5546 35.8831 1.86547C36.7847 2.51952 37.4913 1.79684 38.2449 1.54383C38.4266 1.48327 38.4925 1.0607 38.5975 0.798274C38.8572 0.142882 39.0497 0.00561243 39.7629 0.00292088C40.3672 0.000229333 40.9728 0.0109955 41.577 0.000229333C42.0952 -0.00784532 42.5124 0.196713 42.5958 0.708107C42.7748 1.80357 43.768 1.8103 44.4812 2.16424C44.6427 2.24498 44.9684 2.0162 45.212 1.91123C45.9548 1.59228 46.1096 1.61651 46.6762 2.18039C47.1041 2.607 47.524 3.04303 47.9601 3.46022C48.3261 3.80877 48.4499 4.23808 48.1673 4.63643C47.5267 5.5354 48.1956 6.24732 48.4647 7.00095C48.528 7.1759 48.9102 7.24723 49.1551 7.34682C49.9141 7.65365 49.9935 7.76401 49.9935 8.57147C49.9935 9.17572 49.976 9.78132 49.9989 10.3842C50.0177 10.8889 49.8361 11.2792 49.3354 11.364C48.2561 11.547 48.1996 12.5092 47.8699 13.2427C47.7905 13.4176 47.9964 13.7352 48.1 13.9761C48.423 14.7311 48.3961 14.906 47.8174 15.4847C47.4137 15.8885 46.9992 16.2814 46.6089 16.6986C46.224 17.1091 45.7866 17.2531 45.3116 16.9193C44.4247 16.2962 43.737 17.0176 42.9955 17.2611C42.8152 17.3204 42.7479 17.7443 42.6429 18.0067C42.3805 18.6621 42.188 18.8007 41.4761 18.8034C40.8719 18.8061 40.2663 18.7967 39.662 18.8061C39.1452 18.8142 38.7253 18.6096 38.6433 18.0996C38.4656 17.0041 37.4778 16.9866 36.7592 16.6448C36.5708 16.556 36.1966 16.7928 35.9369 16.9328C35.4268 17.2087 35.0191 17.1131 34.6328 16.7C34.1847 16.2236 33.6989 15.7808 33.2521 15.3017C33.0906 15.1281 32.9964 14.8912 32.8658 14.6719L32.8618 14.6705ZM36.7484 14.8064C36.9691 14.898 37.1683 14.9774 37.3661 15.0608C37.8277 15.2573 38.2718 15.5157 38.7523 15.6368C39.3417 15.7862 39.7091 16.0957 39.8302 16.6798C39.9271 17.1454 40.2461 17.1427 40.6215 17.1454C41.0037 17.1481 41.3146 17.1319 41.4075 16.6703C41.5259 16.0809 41.9041 15.7727 42.4922 15.6354C42.8946 15.5412 43.3037 15.3878 43.6482 15.1644C44.1919 14.8118 44.7087 14.7674 45.2416 15.1133C45.5861 15.3367 45.8082 15.229 46.0423 14.9464C46.2684 14.6746 46.6425 14.4821 46.337 14.0313C45.9804 13.5024 46.0262 12.987 46.3707 12.4433C46.5914 12.0961 46.7677 11.6937 46.8498 11.2926C46.9776 10.6695 47.3222 10.3075 47.917 10.1756C48.3046 10.0895 48.4203 9.87553 48.3853 9.49737C48.3517 9.12862 48.4809 8.72489 47.9116 8.61858C47.3127 8.50688 46.9763 8.12333 46.8484 7.50024C46.7663 7.09919 46.5874 6.69815 46.368 6.3496C46.0383 5.82609 45.9629 5.32142 46.3169 4.80868C46.6129 4.37938 46.3236 4.1654 46.0746 3.88145C45.8028 3.57326 45.5484 3.47637 45.1864 3.70784C44.6791 4.03217 44.1986 3.97565 43.6832 3.6567C43.305 3.42254 42.869 3.24624 42.4356 3.14396C41.8771 3.01342 41.538 2.71466 41.4196 2.16962C41.3267 1.74301 41.0764 1.63804 40.6619 1.6515C40.2515 1.66495 39.9096 1.66495 39.806 2.17366C39.6943 2.7187 39.3444 3.01342 38.7872 3.14396C38.3539 3.24489 37.9192 3.42254 37.5397 3.6567C37.0243 3.97565 36.5425 4.02813 36.0365 3.70515C35.6704 3.46964 35.4215 3.58268 35.1496 3.88279C34.8912 4.16675 34.6207 4.39149 34.9128 4.81138C35.2721 5.3295 35.1792 5.83013 34.8576 6.35229C34.6409 6.70354 34.4633 7.10323 34.3785 7.50427C34.2479 8.12467 33.9088 8.50015 33.3126 8.62396C32.8739 8.71547 32.8282 8.98193 32.847 9.35202C32.8645 9.71942 32.7918 10.076 33.3207 10.177C33.9182 10.29 34.2628 10.6776 34.3771 11.3007C34.439 11.6385 34.5736 11.9897 34.7674 12.2724C35.2048 12.9103 35.2398 13.5172 34.8401 14.1834C34.5642 14.6436 35.1025 14.7513 35.2734 15.0164C35.4107 15.229 35.5897 15.3232 35.8615 15.1752C36.1374 15.0245 36.4416 14.9276 36.7444 14.8024L36.7484 14.8064Z" fill="#008CB8"/>
<path d="M17.1093 4.09834C17.0366 4.33385 17.0272 4.50476 16.9424 4.61512C16.2641 5.48987 16.9397 6.22466 17.2129 6.97964C17.2775 7.15863 17.6503 7.24072 17.8925 7.33896C18.6785 7.65657 18.7525 7.75616 18.7525 8.59861C18.7525 9.22036 18.7417 9.84211 18.7565 10.4625C18.7673 10.908 18.5829 11.278 18.1644 11.34C17.0568 11.5055 16.9787 12.4704 16.6275 13.2173C16.5683 13.3425 16.6773 13.5672 16.7473 13.7287C17.0658 14.4635 16.9415 15.1153 16.3745 15.6841C16.03 16.0286 15.6787 16.3664 15.3436 16.719C14.9897 17.0931 14.5644 17.2641 14.1338 16.9465C13.2348 16.2816 12.5323 17.0205 11.7625 17.2345C11.6441 17.2668 11.5795 17.5359 11.5135 17.7041C11.0923 18.7781 11.0614 18.8009 9.90131 18.8009C9.39799 18.8009 8.89332 18.7969 8.39 18.8009C7.89341 18.8063 7.48161 18.6004 7.41028 18.1132C7.24744 17.0043 6.24888 16.9989 5.53696 16.641C5.37412 16.5589 5.0471 16.7796 4.80486 16.8832C4.03642 17.2129 3.89108 17.1887 3.30163 16.5992C2.8979 16.1955 2.50628 15.7783 2.08505 15.3934C1.66113 15.0058 1.54135 14.5402 1.85896 14.0907C2.49551 13.189 1.74726 12.5189 1.51444 11.7773C1.46195 11.6105 1.06226 11.5432 0.815982 11.4463C0.106758 11.1677 0.0058248 11.0237 0.00447903 10.2539C0.00447903 9.61602 0.016591 8.97677 0.000441702 8.34022C-0.0103245 7.89208 0.175392 7.52468 0.593929 7.46547C1.70823 7.30397 1.77687 6.33098 2.12946 5.58677C2.19271 5.45353 2.06621 5.20995 1.9895 5.03365C1.53866 3.9974 1.54135 3.96376 2.34613 3.15899C2.70276 2.80236 3.06746 2.45515 3.41333 2.08775C3.76727 1.71228 4.18984 1.53867 4.62049 1.85628C5.51812 2.5184 6.23004 1.80648 6.98636 1.55886C7.16939 1.4983 7.24744 1.08246 7.35107 0.821375C7.6283 0.126955 7.79921 0.00448966 8.54881 0.00179811C9.11941 0.000452333 9.69137 -0.000893443 10.262 0.00179811C10.9429 0.00583543 11.2363 0.126955 11.3722 0.781002C11.5956 1.85628 12.5754 1.81052 13.2671 2.16446C13.4434 2.25463 13.8229 2.00162 14.0853 1.86166C14.5779 1.59789 14.9749 1.69478 15.349 2.0864C15.8012 2.56012 16.2843 3.00422 16.7284 3.48466C16.8993 3.67038 17.0016 3.91935 17.1093 4.09699V4.09834ZM5.52081 14.8107C5.72941 14.8915 5.90167 14.952 6.06854 15.0247C6.5436 15.2292 7.00251 15.4944 7.49641 15.6303C8.06971 15.7891 8.47075 16.065 8.58514 16.6625C8.68069 17.1591 9.0279 17.1376 9.41414 17.1483C9.81383 17.1591 10.0911 17.0891 10.1812 16.645C10.297 16.0757 10.6644 15.781 11.235 15.6451C11.6683 15.5415 12.099 15.3584 12.4798 15.127C12.9804 14.8242 13.4528 14.773 13.9373 15.092C14.3289 15.349 14.5738 15.201 14.8672 14.8995C15.1579 14.6021 15.3288 14.3599 15.0637 13.9602C14.7421 13.477 14.7878 13.006 15.1041 12.5094C15.3248 12.1622 15.5132 11.7625 15.5939 11.3615C15.7258 10.7061 16.0609 10.2876 16.7096 10.1691C17.2304 10.0736 17.12 9.70484 17.1402 9.3657C17.1618 9.00638 17.1402 8.71569 16.6894 8.62687C16.065 8.50441 15.7299 8.1074 15.6034 7.46816C15.528 7.08327 15.3517 6.69703 15.1391 6.36462C14.7945 5.82497 14.7353 5.30954 15.096 4.77795C15.3746 4.36749 15.1041 4.14813 14.8443 3.89647C14.6021 3.66231 14.4123 3.40257 14.0086 3.68115C13.4891 4.03912 12.9629 3.99471 12.4166 3.63943C12.0586 3.40661 11.632 3.24377 11.2148 3.14957C10.6576 3.02306 10.3077 2.72968 10.188 2.18599C10.0884 1.73381 9.81922 1.64903 9.39126 1.64903C8.94715 1.64903 8.66185 1.72843 8.56092 2.20887C8.44922 2.73507 8.10201 3.01364 7.56639 3.14149C7.13305 3.24512 6.69298 3.41468 6.31751 3.65154C5.78458 3.98798 5.28126 4.03105 4.76987 3.69191C4.39844 3.44564 4.17638 3.60175 3.92741 3.87629C3.67979 4.14948 3.36488 4.35942 3.66903 4.79949C4.02162 5.30954 3.96779 5.81555 3.62731 6.3404C3.41198 6.67146 3.23165 7.0577 3.15898 7.44259C3.03382 8.10471 2.68526 8.50979 2.04467 8.63764C1.50502 8.7453 1.64363 9.13827 1.6073 9.48682C1.56962 9.8596 1.67459 10.083 2.06621 10.1678C2.68661 10.3024 3.03382 10.6899 3.14821 11.3319C3.20877 11.6697 3.34469 12.0223 3.54252 12.3022C3.98259 12.9266 3.98932 13.5215 3.61116 14.1674C3.32047 14.6627 3.89108 14.7596 4.05795 15.0408C4.20195 15.2844 4.39844 15.2979 4.65279 15.1633C4.93002 15.018 5.23416 14.9224 5.51812 14.8094L5.52081 14.8107Z" fill="#008CB8"/>
<path d="M25.0115 37.3279C27.6452 37.3279 30.2802 37.3279 32.9139 37.3279C33.8815 37.3279 34.0887 37.5405 34.0914 38.5135C34.0914 39.1851 34.0941 39.8553 34.0914 40.5268C34.0874 41.4056 33.8276 41.6721 32.9583 41.6721C31.0123 41.6748 29.0663 41.6721 27.119 41.6721C23.7801 41.6721 20.4412 41.6721 17.1023 41.6721C16.1495 41.6721 15.9033 41.4298 15.9006 40.4945C15.8992 39.7893 15.8965 39.0855 15.9006 38.3803C15.906 37.5796 16.1522 37.3293 16.9557 37.3279C19.6405 37.3239 22.324 37.3266 25.0088 37.3266L25.0115 37.3279ZM32.4375 38.9967H17.5599V39.9777H32.4375V38.9967Z" fill="#008CB8"/>
<path d="M45.4606 9.4341C45.4485 12.096 43.2737 14.2695 40.6185 14.2722C37.9471 14.2748 35.7616 12.0772 35.7656 9.39238C35.7697 6.70621 37.9633 4.51663 40.6333 4.53009C43.3087 4.54355 45.4727 6.7412 45.4593 9.4341H45.4606ZM40.6091 6.19212C38.8138 6.19482 37.3833 7.62807 37.3886 9.41929C37.394 11.1782 38.8219 12.6021 40.5929 12.6128C42.3828 12.6236 43.8389 11.1876 43.8416 9.40987C43.8443 7.62672 42.399 6.18943 40.6077 6.19347L40.6091 6.19212Z" fill="#008CB8"/>
<path d="M14.2263 9.4125C14.2196 12.096 12.0233 14.2869 9.35324 14.2721C6.67784 14.2559 4.51652 12.0556 4.53133 9.36271C4.54613 6.70211 6.72359 4.53003 9.37746 4.53003C12.0502 4.53003 14.2317 6.72768 14.2249 9.4125H14.2263ZM9.32363 12.6114C11.0906 12.6424 12.5723 11.2347 12.6033 9.49325C12.6356 7.68856 11.2508 6.23513 9.45821 6.19206C7.66698 6.149 6.17721 7.56341 6.15029 9.33176C6.12338 11.123 7.53106 12.5778 9.32363 12.6101V12.6114Z" fill="#008CB8"/>
</svg>
