<svg width="20" height="15" viewBox="0 0 20 15" fill="none" xmlns="http://www.w3.org/2000/svg">
<path d="M1.68633 14.7016H4.69423V7.38654L0.399414 4.15869V13.4074C0.399414 14.1236 0.976482 14.7016 1.68633 14.7016Z" fill="black"/>
<path d="M15.0049 14.7013H18.0128C18.7226 14.7013 19.2997 14.1232 19.2997 13.4122V4.16345L15.0049 7.3913V14.7013Z" fill="black"/>
<path d="M15.0049 1.79515V7.38633L19.2997 4.15849V2.4397C19.2997 0.84368 17.4817 -0.0668687 16.205 0.889719L15.0049 1.79515Z" fill="black"/>
<path fill-rule="evenodd" clip-rule="evenodd" d="M4.69238 7.38598V1.7948L9.84514 5.66719L14.9979 1.7948V7.38598L9.84514 11.2584L4.69238 7.38598Z" fill="black"/>
<path d="M0.399414 2.43883V4.15762L4.69423 7.38546V1.79428L3.48903 0.888849C2.21743 -0.0677395 0.399414 0.847925 0.399414 2.43883Z" fill="black"/>
</svg>
