<svg width="320" height="215" viewBox="0 0 320 215" fill="none" xmlns="http://www.w3.org/2000/svg">
<path d="M149.655 55.7049L149.925 44.2611L136.234 40.8459C135.215 40.6062 134.407 39.8273 134.047 38.8387C133.837 38.2995 133.628 37.7602 133.388 37.221C132.969 36.2623 133.029 35.1239 133.598 34.2551L141.417 22.6914L133.568 14.3332L121.555 21.4033C120.506 22.0324 119.218 22.0324 118.11 21.5231C117.361 21.1636 116.612 20.864 115.833 20.5644C114.664 20.1151 113.736 19.1564 113.466 17.9581L110.38 4.29736H98.9367L95.8509 17.9581C95.5514 19.2463 94.6826 20.3248 93.4544 20.8041C92.9451 21.0138 92.4358 21.2235 91.9565 21.4332C90.7881 21.9725 89.41 21.8526 88.2716 21.1936L76.5582 14.2733L68.7092 22.6315L75.929 33.2965C76.7978 34.6146 76.9775 36.2623 76.3784 37.7303C76.3185 37.8501 76.2586 37.9999 76.2286 38.1197C75.6295 39.5577 74.3712 40.6062 72.8434 40.9357L60.3809 43.4522L60.1113 54.8961L73.4426 58.2214C74.6708 58.521 75.6294 59.4496 76.1088 60.648V60.7079C76.6181 61.9062 76.5282 63.2842 75.7793 64.3627L68.4097 75.2674L76.2586 83.6256L87.313 77.0948C88.3915 76.4657 89.6797 76.4956 90.7882 77.0648C91.4472 77.3944 92.1062 77.7239 92.7653 77.9935C93.8138 78.4429 94.6227 79.3416 94.8924 80.4501L97.7683 93.242H109.212L111.848 81.5884C112.118 80.3602 113.047 79.4315 114.245 79.072C115.294 78.7425 116.282 78.383 117.271 77.9336C118.259 77.4842 119.458 77.5142 120.416 78.0834L131.77 84.764L139.619 76.4058L133.029 66.6695C132.31 65.591 132.25 64.2129 132.849 63.0446C133.238 62.2357 133.598 61.4269 133.927 60.588C134.377 59.4197 135.335 58.5509 136.564 58.2813L149.655 55.645V55.7049ZM109.032 69.815C94.5329 72.5712 82.0405 60.0788 84.7966 45.5792C86.3245 37.4606 92.8852 30.9298 100.974 29.402C115.473 26.6459 127.966 39.1383 125.21 53.6378C123.682 61.7564 117.121 68.2872 109.032 69.815Z" fill="#008CB8"/>
<path d="M79.7386 207.262C88.007 227.693 142.83 175.447 163.381 167.538C163.68 167.418 185.01 195.878 185.31 195.758C228.539 178.293 201.936 202.229 249.06 208.34C296.154 214.422 320 196.717 320 166.789C320 115.801 261.492 119.575 263.769 54.2975C265.447 6.21521 221.499 -6.3371 190.882 2.7401C161.643 11.3979 133.633 51.2118 116.617 63.135C96.1255 77.5447 43.6395 76.7658 19.6433 90.846C-5.19166 105.405 -19.1521 160.977 57.8694 182.277C106.611 195.758 73.5074 191.834 79.7386 207.262Z" fill="#E1F3F9"/>
<path d="M200.409 47.1339H36.7192C32.5995 47.1339 29.2598 50.4736 29.2598 54.5934V157.259C29.2598 161.378 32.5995 164.718 36.7192 164.718H200.409C204.528 164.718 207.868 161.378 207.868 157.259V54.5934C207.868 50.4736 204.528 47.1339 200.409 47.1339Z" fill="#CEE8EF"/>
<path d="M36.6892 47.1339H200.409C204.543 47.1339 207.868 50.4592 207.868 54.5934V68.4339H29.2598V54.5934C29.2598 50.4892 32.5851 47.1339 36.7192 47.1339H36.6892Z" fill="#B7D9F7"/>
<path d="M189.775 57.8591C189.775 59.8962 191.423 61.5439 193.49 61.5439C195.557 61.5439 197.205 59.8962 197.205 57.8591C197.205 55.8219 195.557 54.1443 193.49 54.1443C191.423 54.1443 189.775 55.792 189.775 57.8591Z" fill="white"/>
<path d="M180.426 57.8591C180.426 59.8962 182.073 61.5439 184.141 61.5439C186.208 61.5439 187.855 59.8962 187.855 57.8591C187.855 55.8219 186.208 54.1443 184.141 54.1443C182.073 54.1443 180.426 55.792 180.426 57.8591Z" fill="white"/>
<path d="M171.41 57.8591C171.41 59.8962 173.058 61.5439 175.125 61.5439C177.192 61.5439 178.81 59.8962 178.81 57.8591C178.81 55.8219 177.162 54.1443 175.125 54.1443C173.088 54.1443 171.41 55.792 171.41 57.8591Z" fill="white"/>
<path d="M36.4512 157.259C36.4512 161.393 39.7765 164.718 43.9106 164.718H207.63C211.764 164.718 215.089 161.363 215.089 157.259V54.5934C215.089 50.4892 211.764 47.1339 207.63 47.1339H43.9106C39.8064 47.1339 36.4512 50.4592 36.4512 54.5934V157.259Z" fill="white"/>
<path d="M43.9119 47.1339H207.631C211.765 47.1339 215.091 50.4592 215.091 54.5934V68.4339H36.4824V54.5934C36.4824 50.4892 39.8077 47.1339 43.9419 47.1339H43.9119Z" fill="#C1E3FB"/>
<path d="M196.992 57.8591C196.992 59.8962 198.64 61.5439 200.707 61.5439C202.774 61.5439 204.422 59.8962 204.422 57.8591C204.422 55.8219 202.774 54.1443 200.707 54.1443C198.64 54.1443 196.992 55.792 196.992 57.8591Z" fill="white"/>
<path d="M187.652 57.8591C187.652 59.8962 189.3 61.5439 191.367 61.5439C193.434 61.5439 195.082 59.8962 195.082 57.8591C195.082 55.8219 193.434 54.1443 191.367 54.1443C189.3 54.1443 187.652 55.792 187.652 57.8591Z" fill="white"/>
<path d="M178.633 57.8591C178.633 59.8962 180.281 61.5439 182.348 61.5439C184.415 61.5439 186.032 59.8962 186.032 57.8591C186.032 55.8219 184.385 54.1443 182.348 54.1443C180.311 54.1443 178.633 55.792 178.633 57.8591Z" fill="white"/>
<path d="M81.4809 189.943H253.558L258.801 99.8001H76.2383L81.4809 189.943Z" fill="#00B8AD"/>
<path d="M162.157 111.934C162.157 123.228 150.593 132.395 136.303 132.395L77.6759 132.904L75.3691 91.4724H136.333C150.623 91.4724 162.187 100.639 162.187 111.934H162.157Z" fill="#00B8AD"/>
<path d="M254.721 109.447H80.3066V180.627H254.721V109.447Z" fill="#D7D4FF"/>
<path d="M256.999 184.641H92.6504V113.432L261.612 112.203L256.999 184.641Z" fill="#D7D4FF"/>
<path d="M254.898 105.284H83.8086V176.464H254.898V105.284Z" fill="white"/>
<path d="M96.5796 83.7225L77.5098 152.3L242.315 198.129L261.385 129.551L96.5796 83.7225Z" fill="#C1E3FB"/>
<path d="M253.67 113.43H90.5195V184.61H253.67V113.43Z" fill="white"/>
<path d="M260.625 124.249L261.583 107.622H198.013C184.831 107.622 173.867 114.782 171.5 124.249H70.2129L75.6952 214.392H255.172L259.157 149.054V148.994L260.655 124.279H260.595L260.625 124.249Z" fill="#00B8AD"/>
<path d="M259.662 107.773C259.662 107.773 259.482 129.343 257.235 142.764L254.809 142.914C254.809 142.914 258.224 126.946 257.565 107.773H259.662Z" fill="#FDFEFD"/>
<path d="M261.701 141.416H260.054L259.664 145.91H262.39L261.701 141.416Z" fill="#242236"/>
<path d="M258.703 111.817C259.001 111.817 259.242 111.576 259.242 111.278C259.242 110.98 259.001 110.739 258.703 110.739C258.405 110.739 258.164 110.98 258.164 111.278C258.164 111.576 258.405 111.817 258.703 111.817Z" fill="#D94951"/>
<path d="M258.703 116.94C259.001 116.94 259.242 116.698 259.242 116.4C259.242 116.103 259.001 115.861 258.703 115.861C258.405 115.861 258.164 116.103 258.164 116.4C258.164 116.698 258.405 116.94 258.703 116.94Z" fill="#D94951"/>
<path d="M258.434 122.274C258.732 122.274 258.973 122.032 258.973 121.735C258.973 121.437 258.732 121.195 258.434 121.195C258.136 121.195 257.895 121.437 257.895 121.735C257.895 122.032 258.136 122.274 258.434 122.274Z" fill="#D94951"/>
<path d="M257.867 128.502C258.165 128.502 258.407 128.261 258.407 127.963C258.407 127.665 258.165 127.424 257.867 127.424C257.57 127.424 257.328 127.665 257.328 127.963C257.328 128.261 257.57 128.502 257.867 128.502Z" fill="#D94951"/>
<path d="M257.389 135.634C257.687 135.634 257.928 135.392 257.928 135.095C257.928 134.797 257.687 134.555 257.389 134.555C257.091 134.555 256.85 134.797 256.85 135.095C256.85 135.392 257.091 135.634 257.389 135.634Z" fill="#D94951"/>
<path d="M156.067 77.3958C144.324 95.0409 149.117 118.827 166.762 130.571C184.407 142.314 208.194 137.521 219.937 119.876C231.68 102.231 226.887 78.4443 209.242 66.7009C191.597 54.9574 167.81 59.7507 156.067 77.3958ZM211.788 114.454C203.041 127.575 185.336 131.14 172.184 122.422C159.033 113.705 155.498 95.9696 164.215 82.8181C172.933 69.6667 190.668 66.1317 203.82 74.8494C216.941 83.597 220.506 101.302 211.788 114.454Z" fill="#008CB8"/>
<path d="M217.666 108.641L208.671 122.159C207.003 124.665 207.683 128.05 210.19 129.718L211.112 130.332C213.619 132 217.004 131.32 218.672 128.813L227.667 115.295C229.335 112.788 228.655 109.404 226.148 107.736L225.225 107.122C222.718 105.454 219.334 106.134 217.666 108.641Z" fill="#008CB8"/>
<path d="M215.398 116.289L214.867 117.087C213.41 119.277 214.004 122.234 216.194 123.692L266.375 157.082C268.565 158.54 271.522 157.946 272.98 155.755L273.511 154.957C274.968 152.767 274.374 149.81 272.184 148.353L222.003 114.962C219.813 113.505 216.856 114.099 215.398 116.289Z" fill="#008CB8"/>
<path d="M314.188 179.191L314.578 160.348L293.967 169.335L314.188 179.191Z" fill="#008CB8"/>
<path d="M246.213 58.1316L227.369 58.6109L237.315 78.7725L246.213 58.1316Z" fill="#00B860"/>
<path d="M48.1938 77.1544H18.5355C10.2629 77.1544 3.55664 83.8606 3.55664 92.1333V130.479C3.55664 138.752 10.2629 145.458 18.5355 145.458H48.1938C56.4664 145.458 63.1727 138.752 63.1727 130.479V92.1333C63.1727 83.8606 56.4664 77.1544 48.1938 77.1544Z" fill="#00B860"/>
<path d="M50.2005 111.156L48.9722 111.335C48.5828 111.395 48.2233 111.545 47.8938 111.755C47.4744 112.054 47.2048 112.564 47.055 113.193C46.9951 113.522 46.9651 114.032 46.9651 114.661V120.832C46.9651 122.6 46.4558 123.858 45.4672 124.547C44.6284 125.146 43.2803 125.446 41.3929 125.446C41.2132 125.446 40.8238 125.446 40.2246 125.446V124.786C42.2318 124.577 43.3402 123.768 43.49 122.33C43.49 122.15 43.52 121.701 43.52 121.012V115.2C43.52 113.762 43.7896 112.714 44.3588 112.084C44.8681 111.485 45.7368 111.066 46.9651 110.796C45.7668 110.527 44.898 110.107 44.3588 109.508C43.7896 108.879 43.52 107.83 43.52 106.392V100.581C43.52 99.8916 43.52 99.4422 43.49 99.2625C43.3103 97.8544 42.2318 97.0156 40.2246 96.8059V96.1469H41.3929C43.2503 96.1469 44.5984 96.4165 45.4672 97.0156C46.4558 97.7346 46.9651 98.9629 46.9651 100.73V106.902C46.9651 108.01 47.1149 108.819 47.3845 109.268C47.5343 109.508 47.714 109.688 47.8938 109.838C48.2233 110.077 48.5828 110.227 48.9722 110.257L50.2005 110.437V111.096V111.156Z" fill="white"/>
<path d="M17.4883 110.467L18.7165 110.287C19.1059 110.227 19.4655 110.077 19.795 109.868C20.0047 109.718 20.1545 109.538 20.3043 109.298C20.5739 108.849 20.7237 108.07 20.7237 106.932V100.76C20.7237 98.9928 21.233 97.7346 22.2216 97.0456C23.0604 96.4464 24.4085 96.1469 26.2959 96.1469H27.4642V96.8359C25.457 97.0456 24.3486 97.8545 24.1988 99.2924C24.1988 99.4722 24.1688 99.9215 24.1688 100.611V106.422C24.1688 107.86 23.8992 108.909 23.33 109.538C22.8207 110.137 21.952 110.557 20.7237 110.826C21.922 111.096 22.7908 111.515 23.33 112.114C23.8992 112.743 24.1688 113.792 24.1688 115.23V121.042C24.1688 121.731 24.1688 122.18 24.1988 122.36C24.3785 123.768 25.457 124.607 27.4642 124.816V125.476C26.865 125.476 26.4756 125.476 26.2959 125.476C24.4385 125.476 23.0903 125.176 22.2216 124.577C21.233 123.858 20.7237 122.63 20.7237 120.862V114.691C20.7237 114.032 20.6937 113.552 20.6338 113.223C20.514 112.564 20.2144 112.084 19.795 111.785C19.4655 111.545 19.1059 111.395 18.7165 111.365L17.4883 111.186V110.527V110.467Z" fill="white"/>
<path d="M123.088 159.656C124.556 159.446 126.293 159.266 128.181 159.266C131.626 159.266 134.082 160.075 135.7 161.573C137.348 163.101 138.306 165.228 138.306 168.224C138.306 171.219 137.378 173.736 135.64 175.444C133.903 177.181 131.027 178.11 127.432 178.11C125.724 178.11 124.286 178.02 123.088 177.9V159.656ZM125.484 176.073C126.084 176.192 126.982 176.222 127.911 176.222C133.034 176.222 135.82 173.346 135.82 168.344C135.82 163.97 133.363 161.184 128.301 161.184C127.072 161.184 126.114 161.303 125.484 161.423V176.073Z" fill="white"/>
<path d="M142.801 171.73C142.861 174.996 144.958 176.344 147.384 176.344C149.122 176.344 150.171 176.044 151.069 175.655L151.489 177.392C150.65 177.782 149.182 178.231 147.055 178.231C142.951 178.231 140.494 175.535 140.494 171.521C140.494 167.506 142.861 164.331 146.755 164.331C151.099 164.331 152.268 168.165 152.268 170.592C152.268 171.101 152.208 171.461 152.178 171.73H142.831H142.801ZM149.901 169.993C149.901 168.465 149.272 166.068 146.546 166.068C144.089 166.068 143.011 168.315 142.831 169.993H149.901Z" fill="white"/>
<path d="M156.192 164.631L158.798 172.12C159.247 173.319 159.607 174.427 159.876 175.536H159.966C160.266 174.427 160.655 173.319 161.105 172.12L163.681 164.631H166.227L160.985 177.962H158.678L153.615 164.631H156.192Z" fill="white"/>
<path d="M184.413 168.494C184.413 174.875 180.519 178.261 175.785 178.261C171.052 178.261 167.457 174.456 167.457 168.854C167.457 162.952 171.112 159.118 176.085 159.118C181.058 159.118 184.413 163.012 184.413 168.494ZM170.003 168.794C170.003 172.748 172.16 176.313 175.935 176.313C179.71 176.313 181.897 172.808 181.897 168.614C181.897 164.929 179.979 161.065 175.965 161.065C171.951 161.065 170.003 164.72 170.003 168.794Z" fill="white"/>
<path d="M187.432 168.974C187.432 167.267 187.372 165.889 187.312 164.63H189.499L189.619 166.907H189.679C190.668 165.289 192.226 164.331 194.412 164.331C197.648 164.331 200.045 167.057 200.045 171.101C200.045 175.894 197.139 178.261 193.993 178.261C192.226 178.261 190.698 177.482 189.889 176.164H189.829V183.414H187.432V168.974ZM189.829 172.539C189.829 172.899 189.889 173.228 189.949 173.528C190.398 175.205 191.836 176.374 193.574 176.374C196.12 176.374 197.618 174.277 197.618 171.221C197.618 168.555 196.21 166.278 193.664 166.278C192.016 166.278 190.458 167.476 190.009 169.274C189.919 169.573 189.829 169.933 189.829 170.262V172.539Z" fill="white"/>
<path d="M202.779 175.475C203.498 175.954 204.756 176.434 205.984 176.434C207.752 176.434 208.561 175.565 208.561 174.456C208.561 173.288 207.872 172.659 206.074 172C203.678 171.161 202.539 169.813 202.539 168.225C202.539 166.068 204.277 164.331 207.123 164.331C208.471 164.331 209.669 164.72 210.388 165.14L209.789 166.907C209.28 166.578 208.291 166.128 207.063 166.128C205.625 166.128 204.846 166.967 204.846 167.956C204.846 169.064 205.655 169.543 207.392 170.202C209.699 171.071 210.897 172.24 210.897 174.217C210.897 176.553 209.07 178.201 205.924 178.201C204.456 178.201 203.108 177.842 202.18 177.302L202.779 175.445V175.475Z" fill="white"/>
<path d="M285.882 186.231L286.421 186.62C286.421 186.62 286.211 186.92 285.972 187.189C285.762 187.489 285.522 187.758 285.522 187.758L285.043 187.309C285.043 187.309 285.253 187.069 285.492 186.77C285.702 186.5 285.912 186.201 285.912 186.201L285.882 186.231Z" fill="#00B8AD"/>
<path d="M286.993 184.493L287.562 184.792C287.562 184.792 287.383 185.122 287.203 185.422C287.023 185.721 286.813 186.021 286.813 186.021L286.244 185.661C286.244 185.661 286.454 185.362 286.604 185.062C286.783 184.763 286.963 184.463 286.963 184.463L286.993 184.493Z" fill="#00B8AD"/>
<path d="M287.83 182.604L288.459 182.844C288.459 182.844 288.34 183.173 288.19 183.533C288.13 183.712 288.04 183.862 287.98 183.982C287.92 184.102 287.89 184.192 287.89 184.192L287.291 183.892C287.291 183.892 287.321 183.802 287.381 183.712C287.441 183.593 287.501 183.443 287.591 183.263C287.71 182.934 287.83 182.604 287.83 182.604Z" fill="#00B8AD"/>
<path d="M288.34 180.599L288.999 180.689C288.999 180.689 288.939 181.049 288.879 181.408C288.819 181.768 288.699 182.127 288.699 182.127L288.07 181.947C288.07 181.947 288.19 181.618 288.25 181.288C288.31 180.959 288.37 180.599 288.37 180.599H288.34Z" fill="#00B8AD"/>
<path d="M288.309 178.59L288.968 178.5C288.968 178.5 289.028 178.859 289.058 179.249C289.058 179.608 289.058 179.998 289.058 179.998H288.398C288.398 179.998 288.398 179.608 288.398 179.279C288.398 178.949 288.309 178.62 288.309 178.62V178.59Z" fill="#00B8AD"/>
<path d="M287.709 176.703L288.308 176.403C288.308 176.403 288.518 176.703 288.608 177.092C288.728 177.452 288.847 177.811 288.847 177.811L288.218 177.991C288.218 177.991 287.799 176.703 287.739 176.733L287.709 176.703Z" fill="#00B8AD"/>
<path d="M286.543 175.056L287.022 174.607C287.022 174.607 287.262 174.877 287.502 175.176C287.621 175.326 287.741 175.446 287.831 175.566L287.951 175.775L287.412 176.135C287.412 176.135 287.382 176.075 287.292 175.955C287.232 175.835 287.112 175.715 286.992 175.595L286.543 175.086V175.056Z" fill="#00B8AD"/>
<path d="M284.92 173.713L285.369 173.204L286.478 174.133L286.028 174.612L284.92 173.713Z" fill="#00B8AD"/>
<path d="M283.297 172.246L283.836 171.856C283.836 171.856 284.046 172.126 284.315 172.366L284.855 172.785L284.375 173.264C284.375 173.264 284.076 173.025 283.806 172.815C283.537 172.545 283.297 172.276 283.297 172.276V172.246Z" fill="#00B8AD"/>
<path d="M282.043 170.447L282.672 170.177C282.672 170.177 283.361 171.376 283.391 171.346L282.822 171.705L282.043 170.447Z" fill="#00B8AD"/>
<path d="M281.479 168.351L282.138 168.231C282.138 168.231 282.197 168.561 282.257 168.92C282.317 169.25 282.467 169.58 282.467 169.58L281.838 169.789C281.838 169.789 281.688 169.46 281.628 169.1C281.568 168.741 281.508 168.381 281.508 168.381L281.479 168.351Z" fill="#00B8AD"/>
<path d="M281.537 166.164H282.196C282.196 166.164 282.136 166.554 282.106 166.883C282.106 167.213 282.106 167.572 282.106 167.572L281.447 167.632V166.883C281.507 166.524 281.567 166.164 281.567 166.164H281.537Z" fill="#00B8AD"/>
<path d="M282.105 164.036L282.734 164.246L282.345 165.564L281.686 165.474C281.686 165.474 282.075 164.036 282.105 164.066V164.036Z" fill="#00B8AD"/>
<path d="M282.976 162.029L283.575 162.328C283.575 162.328 283.426 162.658 283.276 162.957C283.126 163.257 283.006 163.587 283.006 163.587L282.377 163.347C282.377 163.347 282.407 163.257 282.467 163.137C282.527 163.017 282.587 162.838 282.677 162.688L282.976 162.029Z" fill="#00B8AD"/>
<path d="M283.994 160.171L284.564 160.501L284.204 161.1C284.024 161.399 283.874 161.729 283.874 161.729L283.275 161.429C283.275 161.429 283.455 161.13 283.605 160.8L283.964 160.171H283.994Z" fill="#00B8AD"/>
<path d="M285.177 158.399L284.428 159.627L284.99 159.97L285.74 158.743L285.177 158.399Z" fill="#00B8AD"/>
<path d="M286.148 156.516L286.747 156.815C286.747 156.815 286.567 157.145 286.388 157.474C286.208 157.774 286.028 158.104 286.028 158.104L285.459 157.774L285.818 157.175C285.998 156.875 286.148 156.576 286.148 156.576V156.516Z" fill="#00B8AD"/>
<path d="M286.477 154.658L287.136 154.598C287.136 154.598 287.136 154.688 287.136 154.838C287.136 154.988 287.136 155.167 287.136 155.347C287.106 155.737 287.016 156.096 287.016 156.096L286.387 155.916C286.387 155.916 286.477 155.587 286.507 155.257C286.507 155.107 286.507 154.928 286.507 154.808C286.507 154.688 286.507 154.598 286.507 154.598L286.477 154.658Z" fill="#00B8AD"/>
<path d="M285.851 152.832L286.42 152.472C286.42 152.472 286.48 152.562 286.54 152.682C286.629 152.802 286.689 152.981 286.779 153.161C286.869 153.341 286.929 153.521 286.959 153.641C286.989 153.79 287.019 153.88 287.019 153.88L286.36 154.03C286.36 154.03 286.36 153.94 286.3 153.82C286.3 153.7 286.21 153.551 286.15 153.401C286.03 153.101 285.821 152.832 285.851 152.832Z" fill="#00B8AD"/>
<path d="M284.444 151.421L284.834 150.881C284.834 150.881 286.002 151.81 285.942 151.87L285.433 152.319C285.433 152.319 284.444 151.391 284.414 151.421H284.444Z" fill="#00B8AD"/>
<path d="M282.645 150.434L282.914 149.835L283.124 149.925C283.124 149.925 283.423 150.045 283.573 150.134L284.232 150.494L283.903 151.063C283.903 151.063 283.603 150.913 283.304 150.734C283.154 150.644 283.004 150.584 282.884 150.524C282.764 150.464 282.675 150.434 282.675 150.434H282.645Z" fill="#00B8AD"/>
<path d="M198.792 37.8215C196.575 37.8215 194.748 35.9941 194.748 33.7772C194.748 31.5604 196.575 29.7329 198.792 29.7329C201.009 29.7329 202.837 31.5604 202.837 33.7772C202.837 35.9941 201.009 37.8215 198.792 37.8215ZM198.792 30.5118C196.995 30.5118 195.527 31.9798 195.527 33.7772C195.527 35.5747 196.995 37.0426 198.792 37.0426C200.59 37.0426 202.058 35.5747 202.058 33.7772C202.058 31.9798 200.59 30.5118 198.792 30.5118Z" fill="#242236"/>
</svg>
