<svg width="302" height="212" viewBox="0 0 302 212" fill="none" xmlns="http://www.w3.org/2000/svg">
<path d="M106.234 184.282L106.407 176.929L97.6126 174.737C96.9494 174.564 96.4592 174.074 96.1996 173.44C96.0555 173.094 95.9113 172.748 95.7671 172.402C95.4788 171.767 95.5365 171.046 95.9113 170.498L100.929 163.059L95.8825 157.696L88.1547 162.252C87.4626 162.655 86.6552 162.655 85.9343 162.309C85.4441 162.079 84.9828 161.877 84.4638 161.704C83.7141 161.415 83.1085 160.81 82.9355 160.031L80.9459 151.237H73.5641L71.5744 160.031C71.4014 160.868 70.8247 161.56 70.0462 161.877C69.729 161.992 69.3829 162.136 69.0658 162.28C68.316 162.626 67.4222 162.54 66.7013 162.136L59.1465 157.696L54.1004 163.059L58.7428 169.922C59.3195 170.758 59.406 171.825 59.0311 172.776C59.0023 172.863 58.9735 172.949 58.9158 173.036C58.541 173.959 57.7047 174.651 56.7243 174.853L48.7082 176.467L48.5352 183.82L57.0992 185.954C57.9066 186.156 58.5121 186.761 58.8293 187.511C59.1465 188.319 59.0888 189.212 58.5986 189.905L53.8697 196.911L58.9158 202.275L66.0381 198.065C66.7302 197.661 67.5664 197.661 68.2872 198.065C68.6909 198.267 69.1235 198.469 69.556 198.67C70.248 198.959 70.7671 199.535 70.9113 200.256L72.7567 208.474H80.1385L81.8398 200.977C82.0128 200.199 82.6183 199.593 83.3968 199.362C84.06 199.161 84.7233 198.901 85.3576 198.642C85.992 198.382 86.7706 198.382 87.3761 198.728L94.6714 203.025L99.7175 197.661L95.4788 191.404C95.0174 190.712 94.9886 189.818 95.3634 189.068C95.623 188.549 95.8536 188.03 96.0555 187.482C96.3438 186.733 96.9494 186.156 97.7568 186.012L106.177 184.311L106.234 184.282ZM80.1096 193.365C70.767 195.124 62.7509 187.108 64.5098 177.765C65.4902 172.546 69.7002 168.336 74.9193 167.355C84.2619 165.597 92.2781 173.613 90.5191 182.955C89.5387 188.174 85.3288 192.384 80.1096 193.365Z" fill="#C7E3EA"/>
<path d="M120.158 192.788C127.194 210.175 155.827 215.625 173.33 208.878C173.561 208.791 173.82 208.676 174.051 208.589C210.873 193.71 200.493 172.257 240.603 177.447C280.712 182.638 301.012 167.528 301.012 142.038C301.012 98.6121 251.185 101.813 253.117 46.2474C254.53 5.30153 217.102 -5.39631 191.064 2.33151C166.15 9.71331 142.303 43.5946 127.828 53.7734C110.354 66.0572 65.6885 65.394 45.2444 77.3606C24.1082 89.7597 12.1993 137.107 77.7993 155.244C119.322 166.721 114.852 179.639 120.158 192.788Z" fill="#E1F3F9"/>
<path d="M191.24 208.213L145.219 208.444L151.447 203.167L145.219 189.528V165.999H191.24L192.307 193.681L199.746 201.668L191.24 208.213Z" fill="#008CB8"/>
<path d="M141.96 192.787C140.172 192.787 138.701 191.316 138.701 189.528V169.228C138.701 167.441 140.172 165.97 141.96 165.97C143.747 165.97 145.218 167.441 145.218 169.228V189.528C145.218 191.316 143.747 192.787 141.96 192.787Z" fill="#266275"/>
<path d="M159.199 207.492C157.93 208.761 155.883 208.761 154.614 207.492L139.85 191.979C138.582 190.71 139.014 189.817 140.283 188.548C141.552 187.279 143.599 187.279 144.868 188.548L159.026 202.36C160.294 203.629 160.467 206.253 159.199 207.492Z" fill="#266275"/>
<path d="M156.721 208.444H120.735C118.861 208.444 117.361 206.915 117.361 205.07C117.361 203.196 118.89 201.696 120.735 201.696H156.721C158.596 201.696 160.095 203.224 160.095 205.07C160.095 206.944 158.567 208.444 156.721 208.444Z" fill="#266275"/>
<path d="M190.694 192.672C188.906 192.672 187.436 191.202 187.436 189.414V169.114C187.436 167.326 188.906 165.855 190.694 165.855C192.482 165.855 193.952 167.326 193.952 169.114V189.414C193.952 191.202 192.482 192.672 190.694 192.672Z" fill="#008CB8"/>
<path d="M207.908 207.378C206.639 208.647 204.592 208.647 203.323 207.378L188.963 193.018C187.695 191.749 187.695 189.702 188.963 188.433C190.232 187.165 192.279 187.165 193.548 188.433L207.908 202.649C209.177 203.918 209.177 206.138 207.908 207.378Z" fill="#008CB8"/>
<path d="M205.428 208.329H169.442C167.568 208.329 166.068 206.801 166.068 204.955C166.068 203.081 167.597 201.582 169.442 201.582H205.428C207.303 201.582 208.802 203.11 208.802 204.955C208.802 206.83 207.274 208.329 205.428 208.329Z" fill="#008CB8"/>
<path d="M82.1571 59.3368H246.863C251.189 59.3368 254.707 62.8546 254.707 67.1799V170.813C254.707 175.139 251.189 178.657 246.863 178.657H82.1283C77.803 178.657 74.2852 175.139 74.2852 170.813V67.1799C74.2852 62.8546 77.803 59.3368 82.1283 59.3368H82.1571Z" fill="#266275"/>
<path d="M260.935 170.813C260.935 175.139 257.417 178.657 253.092 178.657H88.3568C84.0316 178.657 80.5137 175.139 80.5137 170.813V67.1799C80.5137 62.8546 84.0316 59.3368 88.3568 59.3368H253.092C257.417 59.3368 260.935 62.8546 260.935 67.1799V170.813Z" fill="#3297B6"/>
<path d="M254.651 65.3634H85.8496V150.052H254.651V65.3634Z" fill="#E3F5FB"/>
<path d="M254.649 65.3634H251.621V150.052H254.649V65.3634Z" fill="#CEE8EF"/>
<path d="M88.3866 178.657H253.122C257.447 178.657 260.965 175.139 260.965 170.814V159.049H80.5723V170.814C80.5723 175.139 84.0902 178.657 88.4154 178.657H88.3866Z" fill="#008CB8"/>
<path d="M143.345 37.6553H57.416V123.584H143.345V37.6553Z" fill="#00B8AD"/>
<path d="M135.183 116.173H65.0273V46.0171H135.183V116.173ZM66.5556 114.645H133.684V47.5454H66.5556V114.674V114.645Z" fill="white"/>
<path d="M69.5851 42.5854H61.9727V50.1979H69.5851V42.5854Z" fill="white"/>
<path d="M138.04 42.5854H130.428V50.1979H138.04V42.5854Z" fill="white"/>
<path d="M69.5871 111.041H61.9746V118.654H69.5871V111.041Z" fill="white"/>
<path d="M138.042 111.041H130.43V118.654H138.042V111.041Z" fill="white"/>
<path d="M243.951 105.764V125.199L265.03 115.481L243.951 105.764Z" fill="#7DB800"/>
<path d="M42.3353 79.322L22.9004 79.8411L33.1657 100.631L42.3353 79.322Z" fill="#008CB8"/>
<path d="M66.7871 114.238L80.8587 85.9511L97.5542 99.9938L117.076 73.0329L133.396 114.238H66.7871Z" fill="#266275"/>
<path d="M85.8482 73.1798C89.3995 73.1798 92.2784 70.3009 92.2784 66.7496C92.2784 63.1983 89.3995 60.3194 85.8482 60.3194C82.2969 60.3194 79.418 63.1983 79.418 66.7496C79.418 70.3009 82.2969 73.1798 85.8482 73.1798Z" fill="#266275"/>
<path d="M66.317 46.2161L65.2363 47.2968L133.867 115.928L134.948 114.847L66.317 46.2161Z" fill="white"/>
<path d="M133.661 46.0116L65.4141 115.025L66.5007 116.1L134.747 47.0862L133.661 46.0116Z" fill="white"/>
<path d="M271.921 115.425C269.615 115.425 267.74 113.55 267.74 111.244C267.74 108.937 269.615 107.062 271.921 107.062C274.228 107.062 276.102 108.937 276.102 111.244C276.102 113.55 274.228 115.425 271.921 115.425ZM271.921 107.899C270.076 107.899 268.548 109.398 268.548 111.272C268.548 113.147 270.047 114.646 271.921 114.646C273.796 114.646 275.295 113.147 275.295 111.272C275.295 109.398 273.796 107.899 271.921 107.899Z" fill="#242236"/>
<path d="M168.688 1.84164L168.141 1.43795C168.141 1.43795 168.371 1.1496 168.602 0.861249C168.833 0.572897 169.092 0.284546 169.092 0.284546L169.582 0.745908C169.582 0.745908 169.352 1.00542 169.121 1.29378C168.89 1.58213 168.688 1.87048 168.688 1.87048V1.84164Z" fill="#00B8AD"/>
<path d="M167.508 3.62884L166.902 3.28281C166.902 3.28281 167.104 2.96563 167.306 2.64844C167.508 2.33126 167.71 2.01407 167.71 2.01407L168.286 2.38893C168.286 2.38893 168.085 2.67728 167.883 2.99446C167.71 3.31165 167.508 3.6 167.508 3.6V3.62884Z" fill="#00B8AD"/>
<path d="M166.586 5.55932L165.951 5.2998C165.951 5.2998 166.095 4.95378 166.24 4.60776C166.326 4.43475 166.384 4.26174 166.47 4.1464C166.528 4.03106 166.586 3.94455 166.586 3.94455L167.191 4.26174C167.191 4.26174 167.162 4.34824 167.076 4.46358C167.018 4.57892 166.932 4.75193 166.874 4.89611C166.73 5.2133 166.586 5.55932 166.586 5.55932Z" fill="#00B8AD"/>
<path d="M166.005 7.60861L165.312 7.49327C165.312 7.49327 165.399 7.11841 165.457 6.74355C165.543 6.3687 165.659 6.02267 165.659 6.02267L166.322 6.22452C166.322 6.22452 166.206 6.57054 166.12 6.91656C166.062 7.26259 165.976 7.60861 165.976 7.60861H166.005Z" fill="#00B8AD"/>
<path d="M165.978 9.68489L165.315 9.77139C165.315 9.77139 165.257 9.39654 165.229 8.99284C165.229 8.61799 165.257 8.21429 165.257 8.21429L165.949 8.27196C165.949 8.27196 165.949 8.61799 165.921 8.96401C165.921 9.31003 165.978 9.65605 165.978 9.65605V9.68489Z" fill="#00B8AD"/>
<path d="M166.558 11.6462L165.953 11.9346C165.953 11.9346 165.751 11.6174 165.664 11.2137C165.549 10.8388 165.434 10.464 165.434 10.464L166.097 10.3198C166.097 10.3198 166.5 11.6462 166.558 11.6174V11.6462Z" fill="#00B8AD"/>
<path d="M167.706 13.376L167.216 13.8373C167.216 13.8373 166.985 13.549 166.725 13.2606C166.61 13.1164 166.466 12.9723 166.408 12.8569L166.293 12.6551L166.87 12.3091C166.87 12.3091 166.899 12.3956 166.985 12.5109C167.043 12.6262 167.187 12.7416 167.273 12.8858L167.706 13.4336V13.376Z" fill="#00B8AD"/>
<path d="M169.322 14.7881L168.861 15.3072L167.736 14.3556L168.198 13.8654L169.322 14.7881Z" fill="#00B8AD"/>
<path d="M170.965 16.346L170.388 16.7497C170.388 16.7497 170.157 16.4614 169.927 16.2018L169.379 15.7405L169.869 15.2791C169.869 15.2791 170.157 15.5386 170.446 15.7693C170.705 16.0577 170.936 16.346 170.936 16.346H170.965Z" fill="#00B8AD"/>
<path d="M172.208 18.2488L171.545 18.5083C171.545 18.5083 170.853 17.2684 170.824 17.2972L171.43 16.9512L172.208 18.2776V18.2488Z" fill="#00B8AD"/>
<path d="M172.752 20.4385L172.06 20.525C172.06 20.525 172.002 20.179 171.973 19.833C171.944 19.487 171.771 19.1698 171.8 19.1409L172.463 18.9391C172.463 18.9391 172.607 19.2851 172.665 19.66C172.723 20.0348 172.78 20.4097 172.78 20.4097L172.752 20.4385Z" fill="#00B8AD"/>
<path d="M172.606 22.689L171.914 22.6314C171.914 22.6314 172.001 22.2853 172.029 21.9393C172.029 21.5933 172.029 21.2184 172.029 21.2184L172.721 21.1608V21.9105C172.635 22.2853 172.577 22.6602 172.577 22.6602L172.606 22.689Z" fill="#00B8AD"/>
<path d="M171.972 24.8507L171.338 24.62L171.799 23.2936L172.491 23.409C172.491 23.409 172.059 24.8795 172.001 24.8507H171.972Z" fill="#00B8AD"/>
<path d="M171.024 26.8975L170.418 26.5803C170.418 26.5803 170.591 26.2631 170.735 25.946C170.908 25.6288 171.052 25.3116 171.052 25.3116L171.687 25.5711C171.687 25.5711 171.658 25.6576 171.6 25.8018C171.543 25.9171 171.456 26.0901 171.37 26.2631L171.024 26.9264V26.8975Z" fill="#00B8AD"/>
<path d="M169.897 28.8016L169.32 28.4267L169.695 27.7924C169.868 27.4752 170.07 27.158 170.07 27.158L170.676 27.504C170.676 27.504 170.503 27.8212 170.301 28.1384L169.926 28.7728L169.897 28.8016Z" fill="#00B8AD"/>
<path d="M168.966 29.0494L168.166 30.2834L168.747 30.6598L169.547 29.4258L168.966 29.0494Z" fill="#00B8AD"/>
<path d="M167.588 32.4929L166.982 32.1757C166.982 32.1757 167.184 31.8585 167.357 31.5125C167.559 31.1953 167.761 30.8781 167.761 30.8781L168.338 31.253L167.963 31.8585C167.79 32.1757 167.617 32.4929 167.617 32.4929H167.588Z" fill="#00B8AD"/>
<path d="M167.184 34.4244H166.492C166.492 34.4244 166.492 34.3667 166.492 34.2225C166.492 34.0784 166.492 33.8765 166.492 33.6747C166.521 33.271 166.636 32.8961 166.636 32.8961L167.3 33.098C167.3 33.098 167.213 33.4152 167.155 33.7612C167.155 33.9342 167.127 34.1072 167.155 34.2225C167.155 34.3379 167.155 34.4244 167.155 34.4244H167.184Z" fill="#00B8AD"/>
<path d="M167.79 36.3277L167.213 36.6737C167.213 36.6737 167.156 36.5872 167.098 36.4718C167.012 36.3565 166.925 36.1835 166.867 35.9816C166.781 35.8086 166.723 35.6068 166.694 35.4626C166.666 35.3184 166.637 35.2319 166.637 35.2319L167.3 35.0877C167.3 35.0877 167.3 35.1742 167.358 35.2896C167.358 35.4049 167.444 35.5779 167.502 35.7221C167.617 36.0393 167.819 36.3277 167.819 36.3277H167.79Z" fill="#00B8AD"/>
<path d="M169.204 37.7974L168.8 38.3453C168.8 38.3453 167.618 37.336 167.676 37.3072L168.195 36.8747C168.195 36.8747 169.175 37.8551 169.204 37.8262V37.7974Z" fill="#00B8AD"/>
<path d="M171.019 38.8639L170.731 39.4983L170.529 39.4118C170.529 39.4118 170.24 39.2676 170.067 39.1811L169.404 38.8063L169.779 38.2296C169.779 38.2296 170.096 38.4026 170.385 38.5756C170.529 38.6621 170.702 38.7486 170.817 38.8063C170.933 38.8639 171.019 38.8928 171.019 38.8928V38.8639Z" fill="#00B8AD"/>
<path d="M21.3107 131.457C21.974 130.477 24.3385 129.439 26.9336 131.284C29.5288 133.101 32.4411 145.298 30.9129 156.89C29.3558 168.481 36.132 167.501 32.0374 174.912C30.4227 177.824 22.4642 175.027 23.9924 167.386C28.8656 142.962 17.1297 137.714 21.3107 131.515V131.457Z" fill="#7DB800"/>
<path d="M2.97454 122.862C2.97454 122.862 4.24329 117.614 9.95264 119.921C15.662 122.227 18.8339 126.841 19.4683 136.472C20.1026 146.103 23.707 148.813 26.6482 155.33C29.6182 161.818 29.3875 176.063 22.842 176.899C16.2964 177.735 16.1522 164.096 11.8558 160.982C4.87767 155.964 9.46245 148.871 9.95264 144.661C11.0195 135.463 0.235206 133.56 2.97454 122.891V122.862Z" fill="#00B860"/>
<path d="M33.5076 165.165C33.5076 165.165 35.0935 167.414 38.1212 162.742C40.947 158.359 44.3207 154.351 43.2538 148.123C42.1869 141.895 52.4811 124.161 43.4557 119.317C38.5826 116.722 28.2019 116.347 29.4418 136.243C30.9413 160.378 29.2977 159.282 33.5364 165.136L33.5076 165.165Z" fill="#00B860"/>
<path d="M1.41729 159.513C2.19584 158.157 4.79099 156.312 7.76101 159.513C7.76101 159.513 10.0102 161.704 10.8752 165.712C11.7114 169.72 13.3839 173.325 15.5177 175.141C17.6515 176.958 21.746 180.735 17.7956 181.427C13.8452 182.119 -5.35898 171.335 1.44611 159.513H1.41729Z" fill="#7DB800"/>
<path d="M45.8826 144.317C45.7096 142.587 45.7673 138.723 50.2656 138.521C54.735 138.32 59.291 142.818 55.7731 151.757C52.2552 160.696 52.1398 172.374 42.307 173.268C32.4743 174.162 40.9806 165.598 41.6727 164.79C45.5942 160.407 46.9207 153.602 45.9114 144.346L45.8826 144.317Z" fill="#7DB800"/>
<path d="M27.053 191.548L26.707 191.317C37.8951 173.151 38.0392 125.054 38.0392 124.593H38.4718C38.4718 125.083 38.3276 173.266 27.0819 191.548H27.053Z" fill="#008CB8"/>
<path d="M37.9815 132.697C37.9815 132.697 37.8085 132.697 37.6932 132.697C34.8673 132.437 33.2237 128.372 33.166 128.199L33.5697 128.054C33.5697 128.054 35.1845 132.063 37.7508 132.293C39.3079 132.437 40.9227 131.198 42.5951 128.574L42.97 128.804C41.3264 131.399 39.6539 132.726 38.0103 132.726L37.9815 132.697Z" fill="#008CB8"/>
<path d="M37.4307 140.423C37.4307 140.423 37.2577 140.423 37.1424 140.423C34.3165 140.163 32.6729 136.098 32.6152 135.925L33.0189 135.781C33.0189 135.781 34.6337 139.789 37.2001 140.019C38.7572 140.163 40.3719 138.924 42.0443 136.3L42.3903 136.53C40.7467 139.154 39.0743 140.452 37.4307 140.452V140.423Z" fill="#008CB8"/>
<path d="M37.4307 149.364C37.4307 149.364 37.2577 149.364 37.1424 149.364C34.3165 149.105 32.6729 145.039 32.6152 144.866L33.0189 144.722C33.0189 144.722 34.6337 148.73 37.2001 148.961C38.7572 149.105 40.3719 147.865 42.0443 145.241L42.3903 145.472C40.7467 148.067 39.0743 149.393 37.4307 149.393V149.364Z" fill="#008CB8"/>
<path d="M36.3958 156.109C36.3958 156.109 36.2516 156.109 36.1939 156.109C34.1466 155.907 32.9644 152.995 32.9355 152.879L33.3392 152.735C33.3392 152.735 34.4638 155.561 36.2516 155.705C37.3185 155.792 38.4719 154.927 39.6253 153.081L40.0002 153.312C38.818 155.186 37.6069 156.138 36.4246 156.138L36.3958 156.109Z" fill="#008CB8"/>
<path d="M34.4897 195.787C24.1091 184.685 10.7872 126.208 10.6719 125.631L11.0756 125.544C11.2198 126.121 24.4839 184.483 34.8069 195.498L34.4897 195.787Z" fill="#008CB8"/>
<path d="M16.9017 151.929C15.5752 151.929 14.047 151.036 12.3457 149.277L12.6629 148.988C14.5948 150.978 16.2673 151.814 17.5937 151.41C19.814 150.747 20.4772 146.97 20.4772 146.941L20.8809 146.999C20.8521 147.172 20.16 151.064 17.6802 151.814C17.4207 151.901 17.1612 151.929 16.8728 151.929H16.9017Z" fill="#008CB8"/>
<path d="M4.03894 168.076C3.49107 168.076 2.82784 167.903 2.07812 167.557L2.25113 167.182C3.51988 167.73 4.41376 167.816 4.90396 167.384C5.76901 166.692 5.36533 164.875 5.36533 164.846L5.76902 164.76C5.76902 164.76 6.23041 166.865 5.16351 167.73C4.87515 167.96 4.5003 168.076 4.03894 168.076Z" fill="#008CB8"/>
<path d="M8.39827 173.785C7.8504 173.785 7.18721 173.612 6.4375 173.266L6.6105 172.891C7.85041 173.439 8.7443 173.526 9.26333 173.093C10.1284 172.401 9.7247 170.584 9.7247 170.556L10.1284 170.469C10.1284 170.469 10.5897 172.574 9.52284 173.41C9.23449 173.641 8.85963 173.756 8.39827 173.756V173.785Z" fill="#008CB8"/>
<path d="M5.94514 170.844C5.39728 170.844 4.73409 170.671 3.98438 170.325L4.15738 169.95C5.39729 170.498 6.29117 170.585 6.81021 170.152C7.67526 169.46 7.27158 167.644 7.27158 167.615L7.67527 167.528C7.67527 167.528 8.13661 169.633 7.06971 170.498C6.78136 170.729 6.40651 170.844 5.94514 170.844Z" fill="#008CB8"/>
<path d="M10.7577 176.208C10.2098 176.208 9.54659 176.035 8.79688 175.689L8.96988 175.314C10.2098 175.862 11.1325 175.948 11.6227 175.516C12.4878 174.824 12.0841 172.978 12.0841 172.978L12.4878 172.892C12.4878 172.892 12.9492 174.997 11.8823 175.833C11.5939 176.064 11.219 176.208 10.7577 176.208Z" fill="#008CB8"/>
<path d="M13.3821 138.404C12.0557 138.404 10.5274 137.51 8.82617 135.78L9.14336 135.491C11.0753 137.51 12.7478 138.317 14.0742 137.914C16.2945 137.25 16.9577 133.473 16.9577 133.415L17.3614 133.473C17.3614 133.646 16.6405 137.539 14.1607 138.288C13.9012 138.375 13.6128 138.404 13.3533 138.404H13.3821Z" fill="#008CB8"/>
<path d="M11.1614 130.562C9.83501 130.562 8.30674 129.668 6.60547 127.909L6.92266 127.62C8.85461 129.639 10.527 130.446 11.8534 130.043C14.0737 129.379 14.737 125.602 14.737 125.544L15.1406 125.631C15.1406 125.804 14.4198 129.697 11.9688 130.446C11.7093 130.533 11.4498 130.562 11.1614 130.562Z" fill="#008CB8"/>
<path d="M15.3458 145.789C14.25 145.789 12.9524 145.039 11.5684 143.597L11.8855 143.309C13.4715 144.952 14.8267 145.616 15.9225 145.298C17.7391 144.751 18.287 141.636 18.287 141.607L18.6906 141.665C18.6906 141.665 18.0851 145.068 16.0378 145.673C15.8071 145.731 15.5764 145.789 15.3458 145.789Z" fill="#008CB8"/>
<path d="M18.804 158.648C17.4776 158.648 15.9493 157.754 14.248 155.995L14.5652 155.707C16.4972 157.725 18.1408 158.533 19.4961 158.129C21.7164 157.466 22.3796 153.688 22.3796 153.631L22.7833 153.717C22.7833 153.89 22.0624 157.783 19.6114 158.533C19.3519 158.619 19.0635 158.648 18.804 158.648Z" fill="#008CB8"/>
<path d="M20.4485 166.549C19.1221 166.549 17.5939 165.655 15.8926 163.925L16.2098 163.636C18.1417 165.626 19.8141 166.462 21.1406 166.059C23.3609 165.395 24.0241 161.618 24.0241 161.589L24.4278 161.647C24.4278 161.82 23.7069 165.713 21.2559 166.462C20.9964 166.549 20.7081 166.578 20.4485 166.578V166.549Z" fill="#008CB8"/>
<path d="M22.7564 172.315C21.8048 172.315 20.7091 171.681 19.498 170.412L19.8152 170.124C21.1705 171.537 22.3239 172.085 23.2466 171.825C24.7748 171.364 25.2651 168.711 25.2651 168.682L25.6688 168.769C25.6688 168.769 25.1497 171.71 23.3619 172.229C23.1601 172.286 22.9582 172.315 22.7564 172.315Z" fill="#008CB8"/>
<path d="M41.1203 185.782C25.2033 185.782 15.6589 179.957 10.4397 174.997C4.7015 169.576 2.79837 164.069 2.76953 164.011L3.17322 163.867C3.17322 163.867 5.07635 169.374 10.7569 174.709C15.9184 179.582 25.3763 185.349 41.1203 185.349H41.697V185.782C41.524 185.782 41.3221 185.782 41.1203 185.782Z" fill="#008CB8"/>
<path d="M50.2644 148.209C49.0245 148.209 47.9288 146.767 47.8711 146.68L48.2171 146.421C48.2171 146.421 49.3705 147.949 50.4374 147.747C51.1006 147.632 51.6197 146.911 52.0234 145.613L52.4271 145.729C51.9657 147.199 51.3313 148.007 50.4951 148.151C50.4086 148.151 50.3221 148.151 50.2356 148.151L50.2644 148.209Z" fill="#008CB8"/>
<path d="M50.2922 153.11C48.9369 153.11 47.9854 151.322 47.9277 151.236L48.3026 151.034C48.3026 151.034 49.1965 152.678 50.2922 152.678C50.9554 152.678 51.5898 152.043 52.1953 150.803L52.5702 150.976C51.907 152.36 51.1572 153.052 50.2922 153.081H50.2634L50.2922 153.11Z" fill="#008CB8"/>
<path d="M48.7668 160.232C47.4116 160.232 46.46 158.444 46.4023 158.358L46.7772 158.156C46.7772 158.156 47.6711 159.799 48.7668 159.799C49.43 159.799 50.0644 159.165 50.6699 157.925L51.0448 158.098C50.3816 159.482 49.603 160.203 48.7668 160.203H48.738L48.7668 160.232Z" fill="#008CB8"/>
<path d="M45.8826 167.241C45.652 167.241 45.4213 167.184 45.2194 167.097C43.9795 166.52 43.9219 164.444 43.9219 164.358H44.3544C44.3544 164.358 44.4121 166.232 45.3925 166.722C45.998 167.01 46.8631 166.722 47.93 165.886L48.1895 166.203C47.2956 166.895 46.5459 167.241 45.8826 167.241Z" fill="#008CB8"/>
<path d="M22.6374 189.01L22.4355 188.635C52.5394 172.113 50.1461 146.334 50.1173 146.074L50.521 146.017C50.521 146.017 51.1842 152.649 48.07 161.184C45.2153 169.056 38.4679 180.273 22.6086 188.952L22.6374 189.01Z" fill="#008CB8"/>
<path d="M19.7012 182.466C19.7012 182.466 19.903 205.131 22.7577 208.793H39.5974C39.5974 208.793 41.9042 203.689 41.7024 182.466H19.7012Z" fill="#FF4650"/>
<path d="M41.7027 182.466H39.9725C37.9829 193.943 33.081 202.074 27.3428 202.074C24.8341 202.074 22.4696 200.488 20.4512 197.778C20.9125 202.738 21.6046 207.322 22.7868 208.822H39.6265C39.6265 208.822 41.9333 203.718 41.7315 182.495L41.7027 182.466Z" fill="#ED3748"/>
</svg>
