<svg width="20" height="16" viewBox="0 0 20 16" fill="none" xmlns="http://www.w3.org/2000/svg">
<path fill-rule="evenodd" clip-rule="evenodd" d="M1.5549 7.02226C6.59309 4.85514 9.95267 3.42644 11.6336 2.73617C16.4332 0.765287 17.4305 0.422925 18.0805 0.41162C18.2235 0.409133 18.5431 0.444114 18.7502 0.609994C18.925 0.75006 18.9731 0.93927 18.9962 1.07207C19.0192 1.20487 19.0478 1.50738 19.0251 1.74376C18.765 4.44175 17.6396 10.989 17.067 14.0108C16.8248 15.2895 16.3478 15.7182 15.8859 15.7601C14.8823 15.8513 14.1202 15.1053 13.1481 14.4762C11.6271 13.4918 10.7678 12.879 9.29128 11.9185C7.58496 10.8083 8.6911 10.1982 9.66352 9.20103C9.91801 8.94007 14.34 4.96911 14.4256 4.60889C14.4363 4.56383 14.4462 4.3959 14.3452 4.30722C14.2441 4.21855 14.095 4.24887 13.9874 4.27299C13.8348 4.30717 11.4048 5.89284 6.69751 9.02998C6.00778 9.49758 5.38304 9.7254 4.8233 9.71346C4.20622 9.7003 3.01922 9.369 2.13681 9.08581C1.05449 8.73847 0.194291 8.55483 0.269195 7.96494C0.30821 7.65769 0.736779 7.34346 1.5549 7.02226Z" fill="black"/>
</svg>
