<svg width="17" height="15" viewBox="0 0 17 15" fill="none" xmlns="http://www.w3.org/2000/svg">
<path fill-rule="evenodd" clip-rule="evenodd" d="M1.33249 6.5902C5.65094 4.73267 8.53058 3.50807 9.97142 2.9164C14.0853 1.22708 14.9401 0.933621 15.4973 0.923931C15.6198 0.9218 15.8938 0.951784 16.0713 1.09397C16.2212 1.21402 16.2624 1.3762 16.2821 1.49003C16.3019 1.60386 16.3264 1.86316 16.3069 2.06577C16.084 4.37833 15.1194 9.9903 14.6286 12.5804C14.421 13.6764 14.0121 14.0438 13.6162 14.0798C12.756 14.158 12.1028 13.5185 11.2696 12.9793C9.96578 12.1355 9.22922 11.6103 7.96368 10.7869C6.50112 9.83539 7.44923 9.31241 8.28274 8.45771C8.50087 8.23403 12.2912 4.83036 12.3645 4.52159C12.3737 4.48297 12.3822 4.33903 12.2956 4.26302C12.209 4.18701 12.0811 4.213 11.9889 4.23368C11.8581 4.26298 9.7753 5.62212 5.74044 8.3111C5.14925 8.71189 4.61376 8.90717 4.13397 8.89694C3.60506 8.88566 2.58763 8.60169 1.83127 8.35895C0.903573 8.06123 0.166256 7.90383 0.23046 7.39821C0.263901 7.13485 0.631246 6.86551 1.33249 6.5902Z" fill="white"/>
</svg>
