<svg width="50" height="50" viewBox="0 0 50 50" fill="none" xmlns="http://www.w3.org/2000/svg">
<path d="M2.23012 32.5783C2.43614 32.3049 2.60715 32.0248 2.82798 31.7946C3.41374 31.1819 3.41105 31.1953 3.0596 30.4197C2.84549 29.9484 2.65158 29.465 2.48461 28.9749C2.35803 28.6045 2.13989 28.4416 1.74669 28.4295C0.374545 28.3891 0.269513 28.2787 0.114658 26.9227C-0.0563553 25.4307 -0.0455826 23.9441 0.211611 22.4615C0.332802 21.7667 0.573836 21.5485 1.28348 21.5351C2.2732 21.5176 2.26512 21.5149 2.62869 20.5763C2.80375 20.1239 3.00034 19.6782 3.21579 19.2446C3.37469 18.9254 3.34372 18.6629 3.07845 18.4353C1.845 17.3755 2.30282 17.0672 2.99765 16.1461C3.91466 14.9302 5.01212 13.8974 6.26712 13.0329C6.79093 12.672 7.10333 12.7003 7.55981 13.1392C7.65677 13.2322 7.76046 13.321 7.8426 13.4261C8.155 13.8206 8.48894 13.8529 8.94004 13.6119C9.43827 13.3439 9.97959 13.1473 10.5155 12.9602C10.906 12.8228 11.0959 12.5925 11.073 12.1791C11.0622 11.9947 11.077 11.8102 11.073 11.6257C11.0582 11.1005 11.3329 10.8043 11.8244 10.7141C13.6247 10.3801 15.4278 10.3788 17.2268 10.7181C17.721 10.811 17.9836 11.1194 17.9661 11.6405C17.9607 11.8088 17.9768 11.9772 17.9647 12.1441C17.9338 12.575 18.1209 12.8228 18.5343 12.9682C19.1012 13.1689 19.6614 13.3978 20.2027 13.659C20.5569 13.83 20.8329 13.826 21.0968 13.5244C22.1256 12.3515 22.4111 12.7582 23.2688 13.3991C24.5158 14.331 25.5782 15.4459 26.4656 16.7265C26.8413 17.2678 26.809 17.5748 26.3404 18.0569C26.2232 18.1767 26.1088 18.302 25.9835 18.4124C25.7061 18.6561 25.6603 18.916 25.8246 19.2621C26.0966 19.8357 26.3471 20.4228 26.5625 21.0207C26.6999 21.4004 26.9315 21.5553 27.3153 21.5405C27.4998 21.5337 27.6842 21.5351 27.8687 21.5418C28.4316 21.5634 28.7009 21.7788 28.8019 22.3322C29.1237 24.0989 29.1224 25.8697 28.8046 27.6364C28.7049 28.1898 28.4343 28.4133 27.8795 28.4362C27.6788 28.4443 27.4769 28.443 27.2749 28.4389C26.9086 28.4308 26.6972 28.5938 26.5666 28.9479C26.3484 29.5445 26.1007 30.1316 25.83 30.7065C25.6698 31.0472 25.7142 31.2909 25.9727 31.5603C26.953 32.5836 26.9517 32.6416 26.0872 33.7713C25.1527 34.9953 24.0566 36.0497 22.7895 36.9277C22.2428 37.3061 21.9357 37.2805 21.4591 36.8159C21.3271 36.6866 21.1938 36.5587 21.0686 36.4227C20.8302 36.1642 20.5784 36.1413 20.2566 36.2907C19.6803 36.5587 19.0945 36.8092 18.498 37.0273C18.125 37.1633 17.9513 37.3842 17.9661 37.7733C17.9728 37.9416 17.9701 38.1086 17.9661 38.2769C17.9526 38.9179 17.7237 39.1791 17.0895 39.2895C15.3699 39.5871 13.6517 39.5858 11.9335 39.2868C11.3046 39.1778 11.0851 38.9152 11.0744 38.2608C11.0717 38.0924 11.0703 37.9255 11.0744 37.7572C11.0811 37.3963 10.933 37.1741 10.5734 37.0435C9.96074 36.8199 9.36018 36.5627 8.76904 36.2854C8.44047 36.1318 8.18731 36.1776 7.96244 36.4389C6.89461 37.671 6.5876 37.1902 5.71098 36.5318C4.49369 35.6175 3.45414 34.5254 2.59368 33.2677C2.46576 33.0805 2.37958 32.8637 2.23415 32.585L2.23012 32.5783ZM27.3287 23.2075C25.9175 23.0459 25.4085 22.6325 24.9615 21.3856C24.8376 21.0395 24.7231 20.6814 24.544 20.3636C23.9219 19.2567 23.8492 18.2064 24.8793 17.1789C24.0135 16.3144 23.1759 15.4796 22.3263 14.6299C21.4941 15.4123 20.643 15.6304 19.6668 15.2062C19.0379 14.9329 18.4064 14.6636 17.7668 14.4144C16.9763 14.1074 16.5266 13.5311 16.3583 12.7164C16.326 12.5575 16.3179 12.3946 16.2923 12.1791H12.7172C12.6781 13.492 12.0304 14.2178 10.8845 14.5572C10.533 14.6609 10.1816 14.7955 9.86245 14.9733C8.76634 15.5846 7.73218 15.6317 6.71013 14.6218C5.84698 15.4904 5.00538 16.336 4.30517 17.0402C4.56506 17.7203 4.83033 18.1956 4.92055 18.7019C5.03501 19.3523 3.90255 22.1101 3.40566 22.5558C3.19829 22.743 2.95053 22.9072 2.69199 23.0096C2.40382 23.124 2.08334 23.1563 1.7063 23.2398V26.7867C3.04344 26.8109 3.75981 27.4936 4.10588 28.6503C4.2163 29.0179 4.35903 29.3829 4.54485 29.7182C5.13734 30.7941 5.12253 31.7946 4.15974 32.7897C5.01885 33.6474 5.86584 34.4931 6.70205 35.3279C7.81566 34.4163 8.48491 34.3382 9.6645 34.9024C10.0119 35.0681 10.3593 35.2539 10.7269 35.3549C11.9442 35.6888 12.6875 36.4052 12.7252 37.7989H16.2748C16.5414 36.2436 16.8471 35.8962 18.2691 35.3697C18.7552 35.1906 19.2251 34.9657 19.6991 34.753C20.2997 34.4837 20.9043 34.4608 21.4968 34.7462C21.7768 34.8809 22.0246 35.0802 22.368 35.3024C23.1975 34.4715 24.0324 33.634 24.8766 32.7883C23.9354 31.8053 23.8869 30.8237 24.4781 29.7586C24.6639 29.4246 24.808 29.0583 24.9143 28.6907C25.2577 27.5152 25.9795 26.815 27.3314 26.7786V23.2062L27.3287 23.2075Z" fill="#008CB8"/>
<path d="M33.8703 25.8024H29.875V24.2H33.8703V23.586C33.8703 17.4214 33.8703 11.2582 33.8703 5.0936C33.8703 4.25604 34.1059 4.01904 34.9421 4.01904C36.4489 4.01904 37.9557 4.01904 39.4881 4.01904V5.61338H35.5117V24.1664H39.4774V25.7688H35.5238V45.127H39.4841V46.7267C39.3602 46.7361 39.2161 46.7536 39.0734 46.755C37.6797 46.7577 36.2846 46.7577 34.891 46.755C34.1234 46.755 33.8703 46.5005 33.8703 45.7289C33.8703 39.2964 33.8703 32.8638 33.8703 26.4299C33.8703 26.232 33.8703 26.0354 33.8703 25.8024Z" fill="#008CB8"/>
<path d="M45.1639 29.8219C42.456 29.8206 40.3176 27.6768 40.3203 24.9662C40.3244 22.2906 42.4721 20.1468 45.1491 20.1482C47.853 20.1482 49.994 22.296 49.9954 25.0053C49.9954 27.6741 47.8395 29.8246 45.1639 29.8233V29.8219ZM48.3809 24.9622C48.3714 23.2251 46.9037 21.7654 45.1612 21.7587C43.408 21.752 41.9173 23.2507 41.9335 25.0026C41.9483 26.7437 43.4215 28.2101 45.1518 28.2074C46.9131 28.2047 48.3916 26.7181 48.3822 24.9608L48.3809 24.9622Z" fill="#008CB8"/>
<path d="M41.1262 45.8986C41.1262 44.8914 41.1235 43.8842 41.1262 42.8783C41.1289 42.2023 41.3996 41.9209 42.0607 41.9195C44.125 41.9155 46.1893 41.9155 48.2536 41.9195C48.9134 41.9195 49.1867 42.2037 49.1867 42.8783C49.1894 44.9264 49.1894 46.9732 49.1867 49.0213C49.1867 49.7121 48.9093 49.9801 48.2024 49.9801C46.1718 49.9814 44.1412 49.9828 42.1105 49.9801C41.3861 49.9801 41.1275 49.7121 41.1262 48.9701C41.1249 47.9468 41.1262 46.922 41.1262 45.8986ZM47.5574 43.5691H42.7623V48.34H47.5574V43.5691Z" fill="#008CB8"/>
<path d="M45.1079 8.85723C43.8488 8.85723 42.5898 8.85857 41.3308 8.85723C40.4272 8.85588 40.0717 8.28763 40.5026 7.50662C41.7805 5.18784 43.0638 2.87309 44.3565 0.562384C44.778 -0.191693 45.5415 -0.191693 45.9643 0.562384C47.257 2.87309 48.5416 5.18783 49.8195 7.50797C50.2491 8.28763 49.8909 8.85588 48.9873 8.85857C47.6946 8.86127 46.4019 8.85857 45.1092 8.85857L45.1079 8.85723ZM47.7983 7.22788C46.9055 5.62547 46.0518 4.09173 45.1564 2.48528C44.2474 4.12405 43.3991 5.65375 42.5252 7.22788H47.7983Z" fill="#008CB8"/>
<path d="M14.5482 15.7124C19.6207 15.707 23.787 19.8544 23.791 24.9148C23.795 30.1099 19.688 34.256 14.5387 34.2573C9.36793 34.2573 5.24744 30.1328 5.24609 24.9539C5.24609 19.8302 9.38544 15.7178 14.5482 15.7138V15.7124ZM20.3923 29.885C18.4424 28.5856 16.537 27.3077 14.6168 26.05C14.4889 25.9665 14.2344 25.9975 14.0715 26.0594C13.04 26.4526 12.018 26.87 10.9919 27.2807C9.92945 27.7049 8.86836 28.1304 7.75879 28.5748C9.19557 31.0377 11.2733 32.4179 14.0459 32.6064C16.5774 32.7788 18.6821 31.8106 20.3923 29.8837V29.885ZM15.3615 17.4279C15.3453 17.5101 15.3265 17.5585 15.3265 17.6057C15.3251 19.8208 15.3171 22.0372 15.3373 24.2523C15.3386 24.4193 15.5002 24.6415 15.651 24.7438C17.4271 25.9463 19.2154 27.1326 21.0023 28.3203C21.0925 28.3795 21.1975 28.4159 21.2945 28.4617C23.8327 23.6114 20.4717 17.8467 15.3602 17.4279H15.3615ZM7.20266 27.0303C9.31003 26.186 11.3918 25.3592 13.4642 24.5068C13.5881 24.4557 13.7012 24.2079 13.7012 24.0503C13.7173 21.9524 13.712 19.8558 13.7093 17.7578C13.7093 17.6474 13.6837 17.537 13.6702 17.4279C8.79699 17.8265 5.85205 22.9085 7.20131 27.0303H7.20266Z" fill="#008CB8"/>
</svg>
