<svg width="18" height="18" viewBox="0 0 18 18" fill="none" xmlns="http://www.w3.org/2000/svg">
<path fill-rule="evenodd" clip-rule="evenodd" d="M2.04347 12.9413L0.898438 17.0993L5.16908 15.979C6.34892 16.618 7.67576 16.9568 9.02581 16.9568H9.02968C13.4783 16.9568 17.099 13.3571 17.099 8.92969C17.1029 6.78526 16.2635 4.76789 14.7393 3.251C13.2191 1.73412 11.1921 0.898682 9.03355 0.898682C4.58883 0.898682 0.968068 4.49839 0.968068 8.92584C0.964199 10.3388 1.33556 11.7209 2.04347 12.9413ZM6.56607 5.22187C6.7092 5.22572 6.8678 5.23342 7.01867 5.56836C7.11533 5.78378 7.27592 6.17529 7.41052 6.50344C7.5237 6.77936 7.6185 7.01048 7.64147 7.05445C7.69176 7.15454 7.7227 7.27004 7.65694 7.40479C7.64917 7.42071 7.64184 7.43593 7.63477 7.45058C7.58204 7.55998 7.54448 7.63788 7.45579 7.73974C7.41948 7.78143 7.38167 7.82713 7.34398 7.87268C7.27725 7.95333 7.21091 8.0335 7.15406 8.09008C7.05348 8.19018 6.94904 8.29798 7.06509 8.49818C7.18114 8.69838 7.58731 9.35672 8.1869 9.88801C8.8315 10.4618 9.39202 10.7036 9.6754 10.8259C9.73044 10.8496 9.77502 10.8689 9.80774 10.8852C10.0089 10.9852 10.1288 10.9698 10.2449 10.8351C10.3609 10.7004 10.7477 10.2499 10.8831 10.0497C11.0147 9.84951 11.15 9.88416 11.3357 9.94961C11.5214 10.0189 12.5117 10.504 12.7129 10.6041C12.7525 10.6238 12.7896 10.6416 12.824 10.6581C12.9641 10.7253 13.0593 10.7709 13.0997 10.839C13.15 10.9237 13.15 11.324 12.9836 11.7937C12.8134 12.2634 11.9895 12.7139 11.622 12.7485C11.5868 12.7518 11.5519 12.7561 11.5159 12.7604C11.1755 12.8016 10.7435 12.8538 9.20428 12.248C7.30789 11.5024 6.056 9.65237 5.80265 9.27798C5.78262 9.24837 5.76883 9.228 5.76146 9.21812C5.76014 9.21635 5.75871 9.21444 5.75717 9.21239C5.64201 9.05829 4.9375 8.11564 4.9375 7.14299C4.9375 6.21252 5.39592 5.72807 5.60498 5.50714C5.61823 5.49314 5.63047 5.4802 5.64154 5.46826C5.82722 5.26807 6.04384 5.21802 6.17924 5.21802C6.31463 5.21802 6.45002 5.21802 6.56607 5.22187Z" fill="white"/>
</svg>
