<svg width="19" height="19" viewBox="0 0 19 19" fill="none" xmlns="http://www.w3.org/2000/svg">
<path fill-rule="evenodd" clip-rule="evenodd" d="M1.38372 14.0986L0.0478516 18.9495L5.03027 17.6425C6.40675 18.3881 7.95473 18.7833 9.52979 18.7833H9.5343C14.7243 18.7833 18.9485 14.5837 18.9485 9.41833C18.9531 6.91651 17.9737 4.5629 16.1956 2.7932C14.4219 1.02351 12.0571 0.0488281 9.53881 0.0488281C4.35331 0.0488281 0.129087 4.24849 0.129087 9.41384C0.124574 11.0623 0.557827 12.6748 1.38372 14.0986ZM6.66074 5.09238C6.82772 5.09687 7.01276 5.10586 7.18877 5.49663C7.30154 5.74795 7.4889 6.20472 7.64594 6.58756C7.77797 6.90946 7.88857 7.1791 7.91537 7.23039C7.97404 7.34717 8.01015 7.48192 7.93342 7.63913C7.92436 7.6577 7.9158 7.67545 7.90756 7.69255C7.84603 7.82018 7.80222 7.91107 7.69874 8.0299C7.65639 8.07854 7.61227 8.13185 7.5683 8.185C7.49045 8.27908 7.41306 8.37262 7.34673 8.43863C7.22939 8.55542 7.10753 8.68118 7.24293 8.91475C7.37832 9.14831 7.85219 9.91638 8.55171 10.5362C9.30375 11.2057 9.95769 11.4878 10.2883 11.6304C10.3525 11.6581 10.4045 11.6806 10.4427 11.6995C10.6774 11.8163 10.8173 11.7984 10.9527 11.6412C11.0881 11.4839 11.5394 10.9584 11.6973 10.7249C11.8508 10.4913 12.0087 10.5317 12.2253 10.6081C12.442 10.6889 13.5973 11.2549 13.832 11.3717C13.8782 11.3947 13.9215 11.4154 13.9616 11.4347C14.1251 11.513 14.2362 11.5663 14.2833 11.6456C14.342 11.7445 14.342 12.2116 14.1479 12.7596C13.9493 13.3075 12.9881 13.8331 12.5593 13.8735C12.5183 13.8774 12.4775 13.8823 12.4355 13.8874C12.0384 13.9354 11.5344 13.9964 9.73865 13.2896C7.5262 12.4196 6.06566 10.2613 5.77009 9.82452C5.74671 9.78998 5.73062 9.7662 5.72202 9.75468C5.72048 9.75261 5.71882 9.75039 5.71703 9.74799C5.58267 9.56822 4.76074 8.46846 4.76074 7.3337C4.76074 6.24814 5.29556 5.68295 5.53947 5.4252C5.55492 5.40886 5.56921 5.39376 5.58212 5.37985C5.79875 5.14628 6.05148 5.08789 6.20943 5.08789C6.36739 5.08789 6.52535 5.08789 6.66074 5.09238Z" fill="black"/>
</svg>
